%TF.GenerationSoftware,KiCad,Pcbnew,9.0.2*%
%TF.CreationDate,2026-05-08T07:42:56+09:00*%
%TF.ProjectId,mapadubu_19.05mm,6d617061-6475-4627-955f-31392e30356d,rev?*%
%TF.SameCoordinates,Original*%
%TF.FileFunction,Paste,Top*%
%TF.FilePolarity,Positive*%
%FSLAX46Y46*%
G04 Gerber Fmt 4.6, Leading zero omitted, Abs format (unit mm)*
G04 Created by KiCad (PCBNEW 9.0.2) date 2026-05-08 07:42:56*
%MOMM*%
%LPD*%
G01*
G04 APERTURE LIST*
G04 Aperture macros list*
%AMRoundRect*
0 Rectangle with rounded corners*
0 $1 Rounding radius*
0 $2 $3 $4 $5 $6 $7 $8 $9 X,Y pos of 4 corners*
0 Add a 4 corners polygon primitive as box body*
4,1,4,$2,$3,$4,$5,$6,$7,$8,$9,$2,$3,0*
0 Add four circle primitives for the rounded corners*
1,1,$1+$1,$2,$3*
1,1,$1+$1,$4,$5*
1,1,$1+$1,$6,$7*
1,1,$1+$1,$8,$9*
0 Add four rect primitives between the rounded corners*
20,1,$1+$1,$2,$3,$4,$5,0*
20,1,$1+$1,$4,$5,$6,$7,0*
20,1,$1+$1,$6,$7,$8,$9,0*
20,1,$1+$1,$8,$9,$2,$3,0*%
%AMOutline5P*
0 Free polygon, 5 corners , with rotation*
0 The origin of the aperture is its center*
0 number of corners: always 5*
0 $1 to $10 corner X, Y*
0 $11 Rotation angle, in degrees counterclockwise*
0 create outline with 5 corners*
4,1,5,$1,$2,$3,$4,$5,$6,$7,$8,$9,$10,$1,$2,$11*%
%AMOutline6P*
0 Free polygon, 6 corners , with rotation*
0 The origin of the aperture is its center*
0 number of corners: always 6*
0 $1 to $12 corner X, Y*
0 $13 Rotation angle, in degrees counterclockwise*
0 create outline with 6 corners*
4,1,6,$1,$2,$3,$4,$5,$6,$7,$8,$9,$10,$11,$12,$1,$2,$13*%
%AMOutline7P*
0 Free polygon, 7 corners , with rotation*
0 The origin of the aperture is its center*
0 number of corners: always 7*
0 $1 to $14 corner X, Y*
0 $15 Rotation angle, in degrees counterclockwise*
0 create outline with 7 corners*
4,1,7,$1,$2,$3,$4,$5,$6,$7,$8,$9,$10,$11,$12,$13,$14,$1,$2,$15*%
%AMOutline8P*
0 Free polygon, 8 corners , with rotation*
0 The origin of the aperture is its center*
0 number of corners: always 8*
0 $1 to $16 corner X, Y*
0 $17 Rotation angle, in degrees counterclockwise*
0 create outline with 8 corners*
4,1,8,$1,$2,$3,$4,$5,$6,$7,$8,$9,$10,$11,$12,$13,$14,$15,$16,$1,$2,$17*%
G04 Aperture macros list end*
%ADD10R,0.940000X1.400000*%
%ADD11R,2.600000X2.600000*%
%ADD12R,0.800000X1.000000*%
%ADD13R,1.500000X0.700000*%
%ADD14RoundRect,0.250000X0.375000X0.625000X-0.375000X0.625000X-0.375000X-0.625000X0.375000X-0.625000X0*%
%ADD15R,1.600000X0.850000*%
%ADD16Outline5P,-1.300000X0.260000X-0.260000X1.300000X1.300000X1.300000X1.300000X-1.300000X-1.300000X-1.300000X0.000000*%
%ADD17RoundRect,0.200000X-0.600000X0.200000X-0.600000X-0.200000X0.600000X-0.200000X0.600000X0.200000X0*%
%ADD18RoundRect,0.250001X-1.249999X0.799999X-1.249999X-0.799999X1.249999X-0.799999X1.249999X0.799999X0*%
%ADD19RoundRect,0.275000X0.275000X-0.625000X0.275000X0.625000X-0.275000X0.625000X-0.275000X-0.625000X0*%
%ADD20RoundRect,0.450000X-0.450000X1.300000X-0.450000X-1.300000X0.450000X-1.300000X0.450000X1.300000X0*%
%ADD21RoundRect,0.337500X0.337500X-0.912500X0.337500X0.912500X-0.337500X0.912500X-0.337500X-0.912500X0*%
%ADD22RoundRect,0.450000X0.450000X-1.300000X0.450000X1.300000X-0.450000X1.300000X-0.450000X-1.300000X0*%
%ADD23RoundRect,0.337500X0.912500X0.337500X-0.912500X0.337500X-0.912500X-0.337500X0.912500X-0.337500X0*%
%ADD24C,1.500000*%
G04 APERTURE END LIST*
D10*
%TO.C,D1*%
X174990834Y-113796510D03*
X174990832Y-110246512D03*
%TD*%
D11*
%TO.C,SW19*%
X99559765Y-110436245D03*
X111109765Y-108236245D03*
%TD*%
%TO.C,SW1*%
X109354976Y-71938903D03*
X120904976Y-69738903D03*
%TD*%
D10*
%TO.C,D1*%
X167373159Y-113781910D03*
X167373157Y-110231912D03*
%TD*%
D11*
%TO.C,SW18*%
X185487563Y-134945886D03*
X197037563Y-132745886D03*
%TD*%
D10*
%TO.C,D1*%
X177529062Y-113787228D03*
X177529060Y-110237230D03*
%TD*%
%TO.C,D1*%
X154693800Y-113735465D03*
X154693798Y-110185467D03*
%TD*%
D11*
%TO.C,SW8*%
X147844942Y-86054205D03*
X159394942Y-83854205D03*
%TD*%
D12*
%TO.C,REF\u002A\u002A*%
X88991375Y-101888335D03*
X86781375Y-101888335D03*
X88991375Y-109188335D03*
X86781375Y-109188335D03*
D13*
X89641375Y-103288335D03*
X89641375Y-107788335D03*
X89641375Y-106288335D03*
%TD*%
D10*
%TO.C,D1*%
X185124653Y-113804906D03*
X185124651Y-110254908D03*
%TD*%
%TO.C,D1*%
X152155572Y-113744747D03*
X152155570Y-110194749D03*
%TD*%
D14*
%TO.C,REF\u002A\u002A*%
X205718433Y-66860019D03*
X202918433Y-66860019D03*
%TD*%
D10*
%TO.C,D1*%
X187658599Y-113820744D03*
X187658597Y-110270746D03*
%TD*%
D11*
%TO.C,SW12*%
X138071415Y-108041240D03*
X149621415Y-105841240D03*
%TD*%
D10*
%TO.C,D1*%
X195276274Y-113835344D03*
X195276272Y-110285346D03*
%TD*%
D14*
%TO.C,REF\u002A\u002A*%
X205623433Y-71095019D03*
X202823433Y-71095019D03*
%TD*%
D11*
%TO.C,*%
X140727073Y-112115903D03*
%TD*%
%TO.C,SW13*%
X157326201Y-105294959D03*
X168876201Y-103094959D03*
%TD*%
%TO.C,SW6*%
X109348641Y-91175588D03*
X120898641Y-88975588D03*
%TD*%
D10*
%TO.C,D1*%
X190204100Y-113828788D03*
X190204098Y-110278790D03*
%TD*%
D11*
%TO.C,SW10*%
X186359214Y-86035152D03*
X197909214Y-83835152D03*
%TD*%
D10*
%TO.C,D1*%
X157227746Y-113751303D03*
X157227744Y-110201305D03*
%TD*%
%TO.C,D1*%
X162311475Y-113750065D03*
X162311473Y-110200067D03*
%TD*%
%TO.C,D1*%
X180063008Y-113803066D03*
X180063006Y-110253068D03*
%TD*%
D11*
%TO.C,SW16*%
X146447563Y-131865886D03*
X157997563Y-129665886D03*
%TD*%
D10*
%TO.C,D1*%
X169911387Y-113772628D03*
X169911385Y-110222630D03*
%TD*%
D11*
%TO.C,SW9*%
X167095696Y-86047735D03*
X178645696Y-83847735D03*
%TD*%
D10*
%TO.C,D1*%
X197821342Y-113846315D03*
X197821340Y-110296317D03*
%TD*%
D15*
%TO.C,REF\u002A\u002A*%
X202334290Y-56333201D03*
X202334290Y-58083201D03*
X205834290Y-58083201D03*
X205834290Y-56333201D03*
%TD*%
D11*
%TO.C,SW2*%
X128612529Y-69533769D03*
X140162529Y-67333769D03*
%TD*%
D16*
%TO.C,*%
X140636757Y-115728548D03*
%TD*%
D11*
%TO.C,SW5*%
X186348034Y-66777759D03*
X197898034Y-64577759D03*
%TD*%
D17*
%TO.C,REF\u002A\u002A*%
X148906101Y-113351222D03*
X148906101Y-114601222D03*
D18*
X146006101Y-110801222D03*
X146006101Y-117151222D03*
%TD*%
D11*
%TO.C,SW4*%
X167096125Y-66788451D03*
X178646125Y-64588451D03*
%TD*%
D10*
%TO.C,D1*%
X164845421Y-113765903D03*
X164845419Y-110215905D03*
%TD*%
%TO.C,D1*%
X159773247Y-113759347D03*
X159773245Y-110209349D03*
%TD*%
D19*
%TO.C,REF\u002A\u002A*%
X87975333Y-98611110D03*
X87975333Y-92411110D03*
X91675333Y-98611110D03*
X91675333Y-92411110D03*
%TD*%
D11*
%TO.C,SW15*%
X195821546Y-105273614D03*
X207371546Y-103073614D03*
%TD*%
%TO.C,SW14*%
X176571934Y-105292701D03*
X188121934Y-103092701D03*
%TD*%
%TO.C,SW3*%
X147846274Y-66808675D03*
X159396274Y-64608675D03*
%TD*%
D10*
%TO.C,D1*%
X182586425Y-113814188D03*
X182586423Y-110264190D03*
%TD*%
D11*
%TO.C,SW17*%
X166082563Y-133865886D03*
X177632563Y-131665886D03*
%TD*%
%TO.C,SW11*%
X118807818Y-110434021D03*
X130357818Y-108234021D03*
%TD*%
D10*
%TO.C,D1*%
X172445333Y-113788466D03*
X172445331Y-110238468D03*
%TD*%
%TO.C,D1*%
X192742328Y-113819506D03*
X192742326Y-110269508D03*
%TD*%
D11*
%TO.C,SW7*%
X128598171Y-88781693D03*
X140148171Y-86581693D03*
%TD*%
D20*
%TO.C,REF\u002A\u002A*%
X120660037Y-114877341D03*
D21*
X123517537Y-128242342D03*
X125422537Y-128242343D03*
D20*
X123200038Y-114877341D03*
X118120037Y-114877341D03*
D22*
X130820037Y-132717341D03*
X133360037Y-132717341D03*
D23*
X134947537Y-119987341D03*
X134947537Y-118082341D03*
D24*
X117167537Y-125067341D03*
X117167537Y-122527341D03*
D22*
X118120037Y-132717341D03*
X120660037Y-132717341D03*
X123200037Y-132717341D03*
X125740037Y-132717341D03*
X128280037Y-132717341D03*
X133360037Y-114877341D03*
X130820037Y-114877341D03*
D20*
X128280037Y-114877341D03*
X125740037Y-114877341D03*
%TD*%
M02*
