%TF.GenerationSoftware,KiCad,Pcbnew,9.0.2*%
%TF.CreationDate,2026-05-08T07:42:56+09:00*%
%TF.ProjectId,mapadubu_19.05mm,6d617061-6475-4627-955f-31392e30356d,rev?*%
%TF.SameCoordinates,Original*%
%TF.FileFunction,Soldermask,Top*%
%TF.FilePolarity,Negative*%
%FSLAX46Y46*%
G04 Gerber Fmt 4.6, Leading zero omitted, Abs format (unit mm)*
G04 Created by KiCad (PCBNEW 9.0.2) date 2026-05-08 07:42:56*
%MOMM*%
%LPD*%
G01*
G04 APERTURE LIST*
G04 Aperture macros list*
%AMRoundRect*
0 Rectangle with rounded corners*
0 $1 Rounding radius*
0 $2 $3 $4 $5 $6 $7 $8 $9 X,Y pos of 4 corners*
0 Add a 4 corners polygon primitive as box body*
4,1,4,$2,$3,$4,$5,$6,$7,$8,$9,$2,$3,0*
0 Add four circle primitives for the rounded corners*
1,1,$1+$1,$2,$3*
1,1,$1+$1,$4,$5*
1,1,$1+$1,$6,$7*
1,1,$1+$1,$8,$9*
0 Add four rect primitives between the rounded corners*
20,1,$1+$1,$2,$3,$4,$5,0*
20,1,$1+$1,$4,$5,$6,$7,0*
20,1,$1+$1,$6,$7,$8,$9,0*
20,1,$1+$1,$8,$9,$2,$3,0*%
%AMOutline5P*
0 Free polygon, 5 corners , with rotation*
0 The origin of the aperture is its center*
0 number of corners: always 5*
0 $1 to $10 corner X, Y*
0 $11 Rotation angle, in degrees counterclockwise*
0 create outline with 5 corners*
4,1,5,$1,$2,$3,$4,$5,$6,$7,$8,$9,$10,$1,$2,$11*%
%AMOutline6P*
0 Free polygon, 6 corners , with rotation*
0 The origin of the aperture is its center*
0 number of corners: always 6*
0 $1 to $12 corner X, Y*
0 $13 Rotation angle, in degrees counterclockwise*
0 create outline with 6 corners*
4,1,6,$1,$2,$3,$4,$5,$6,$7,$8,$9,$10,$11,$12,$1,$2,$13*%
%AMOutline7P*
0 Free polygon, 7 corners , with rotation*
0 The origin of the aperture is its center*
0 number of corners: always 7*
0 $1 to $14 corner X, Y*
0 $15 Rotation angle, in degrees counterclockwise*
0 create outline with 7 corners*
4,1,7,$1,$2,$3,$4,$5,$6,$7,$8,$9,$10,$11,$12,$13,$14,$1,$2,$15*%
%AMOutline8P*
0 Free polygon, 8 corners , with rotation*
0 The origin of the aperture is its center*
0 number of corners: always 8*
0 $1 to $16 corner X, Y*
0 $17 Rotation angle, in degrees counterclockwise*
0 create outline with 8 corners*
4,1,8,$1,$2,$3,$4,$5,$6,$7,$8,$9,$10,$11,$12,$13,$14,$15,$16,$1,$2,$17*%
%AMFreePoly0*
4,1,6,1.000000,0.000000,0.500000,-0.750000,-0.500000,-0.750000,-0.500000,0.750000,0.500000,0.750000,1.000000,0.000000,1.000000,0.000000,$1*%
%AMFreePoly1*
4,1,6,0.500000,-0.750000,-0.650000,-0.750000,-0.150000,0.000000,-0.650000,0.750000,0.500000,0.750000,0.500000,-0.750000,0.500000,-0.750000,$1*%
G04 Aperture macros list end*
%ADD10C,0.200000*%
%ADD11R,1.397000X1.397000*%
%ADD12R,0.940000X1.400000*%
%ADD13C,1.397000*%
%ADD14C,1.701800*%
%ADD15C,0.990600*%
%ADD16C,3.000000*%
%ADD17C,5.000000*%
%ADD18R,2.600000X2.600000*%
%ADD19R,0.800000X1.000000*%
%ADD20C,0.900000*%
%ADD21R,1.500000X0.700000*%
%ADD22RoundRect,0.250000X0.375000X0.625000X-0.375000X0.625000X-0.375000X-0.625000X0.375000X-0.625000X0*%
%ADD23FreePoly0,180.000000*%
%ADD24FreePoly1,180.000000*%
%ADD25R,1.600000X0.850000*%
%ADD26Outline5P,-1.300000X0.260000X-0.260000X1.300000X1.300000X1.300000X1.300000X-1.300000X-1.300000X-1.300000X0.000000*%
%ADD27RoundRect,0.200000X-0.600000X0.200000X-0.600000X-0.200000X0.600000X-0.200000X0.600000X0.200000X0*%
%ADD28RoundRect,0.250001X-1.249999X0.799999X-1.249999X-0.799999X1.249999X-0.799999X1.249999X0.799999X0*%
%ADD29RoundRect,0.275000X0.275000X-0.625000X0.275000X0.625000X-0.275000X0.625000X-0.275000X-0.625000X0*%
%ADD30RoundRect,0.450000X-0.450000X1.300000X-0.450000X-1.300000X0.450000X-1.300000X0.450000X1.300000X0*%
%ADD31RoundRect,0.337500X0.337500X-0.912500X0.337500X0.912500X-0.337500X0.912500X-0.337500X-0.912500X0*%
%ADD32RoundRect,0.450000X0.450000X-1.300000X0.450000X1.300000X-0.450000X1.300000X-0.450000X-1.300000X0*%
%ADD33RoundRect,0.337500X0.912500X0.337500X-0.912500X0.337500X-0.912500X-0.337500X0.912500X-0.337500X0*%
%ADD34C,1.500000*%
%ADD35RoundRect,0.250000X0.500000X-0.500000X0.500000X0.500000X-0.500000X0.500000X-0.500000X-0.500000X0*%
%ADD36RoundRect,0.250000X-0.500000X0.500000X-0.500000X-0.500000X0.500000X-0.500000X0.500000X0.500000X0*%
G04 APERTURE END LIST*
D10*
X89535000Y-60325000D02*
X101535000Y-60325000D01*
X101535000Y-90325000D01*
X89535000Y-90325000D01*
X89535000Y-60325000D01*
%TO.C,REF\u002A\u002A*%
G36*
X119255983Y-128103592D02*
G01*
X116805983Y-128103592D01*
X116805983Y-126603592D01*
X119255983Y-126603592D01*
X119255983Y-128103592D01*
G37*
G36*
X119335000Y-120765000D02*
G01*
X116885000Y-120765000D01*
X116885000Y-119265000D01*
X119335000Y-119265000D01*
X119335000Y-120765000D01*
G37*
%TD*%
D11*
%TO.C,D1*%
X174990833Y-115831510D03*
D12*
X174990834Y-113796510D03*
X174990832Y-110246512D03*
D13*
X174990833Y-108211512D03*
%TD*%
D14*
%TO.C,SW19*%
X97334765Y-104486245D03*
D15*
X97614765Y-100286245D03*
D16*
X97834765Y-108236245D03*
D17*
X102834765Y-104486245D03*
D16*
X102834765Y-110436245D03*
X107834765Y-108236245D03*
D15*
X108054765Y-100286245D03*
D14*
X108334765Y-104486245D03*
D18*
X99559765Y-110436245D03*
X111109765Y-108236245D03*
%TD*%
D14*
%TO.C,SW1*%
X107129976Y-65988903D03*
D15*
X107409976Y-61788903D03*
D16*
X107629976Y-69738903D03*
D17*
X112629976Y-65988903D03*
D16*
X112629976Y-71938903D03*
X117629976Y-69738903D03*
D15*
X117849976Y-61788903D03*
D14*
X118129976Y-65988903D03*
D18*
X109354976Y-71938903D03*
X120904976Y-69738903D03*
%TD*%
D11*
%TO.C,D1*%
X167373158Y-115816910D03*
D12*
X167373159Y-113781910D03*
X167373157Y-110231912D03*
D13*
X167373158Y-108196912D03*
%TD*%
D14*
%TO.C,SW18*%
X183262563Y-128995886D03*
D15*
X183542563Y-124795886D03*
D16*
X183762563Y-132745886D03*
D17*
X188762563Y-128995886D03*
D16*
X188762563Y-134945886D03*
X193762563Y-132745886D03*
D15*
X193982563Y-124795886D03*
D14*
X194262563Y-128995886D03*
D18*
X185487563Y-134945886D03*
X197037563Y-132745886D03*
%TD*%
D11*
%TO.C,D1*%
X177529061Y-115822228D03*
D12*
X177529062Y-113787228D03*
X177529060Y-110237230D03*
D13*
X177529061Y-108202230D03*
%TD*%
D11*
%TO.C,D1*%
X154693799Y-115770465D03*
D12*
X154693800Y-113735465D03*
X154693798Y-110185467D03*
D13*
X154693799Y-108150467D03*
%TD*%
D14*
%TO.C,SW8*%
X145619942Y-80104205D03*
D15*
X145899942Y-75904205D03*
D16*
X146119942Y-83854205D03*
D17*
X151119942Y-80104205D03*
D16*
X151119942Y-86054205D03*
X156119942Y-83854205D03*
D15*
X156339942Y-75904205D03*
D14*
X156619942Y-80104205D03*
D18*
X147844942Y-86054205D03*
X159394942Y-83854205D03*
%TD*%
D19*
%TO.C,REF\u002A\u002A*%
X88991375Y-101888335D03*
X86781375Y-101888335D03*
D20*
X87881375Y-104038335D03*
X87881375Y-107038335D03*
D19*
X88991375Y-109188335D03*
X86781375Y-109188335D03*
D21*
X89641375Y-103288335D03*
X89641375Y-107788335D03*
X89641375Y-106288335D03*
%TD*%
D11*
%TO.C,D1*%
X185124652Y-115839906D03*
D12*
X185124653Y-113804906D03*
X185124651Y-110254908D03*
D13*
X185124652Y-108219908D03*
%TD*%
D11*
%TO.C,D1*%
X152155571Y-115779747D03*
D12*
X152155572Y-113744747D03*
X152155570Y-110194749D03*
D13*
X152155571Y-108159749D03*
%TD*%
D22*
%TO.C,REF\u002A\u002A*%
X205718433Y-66860019D03*
X202918433Y-66860019D03*
%TD*%
D11*
%TO.C,D1*%
X187658598Y-115855744D03*
D12*
X187658599Y-113820744D03*
X187658597Y-110270746D03*
D13*
X187658598Y-108235746D03*
%TD*%
D14*
%TO.C,SW12*%
X135846415Y-102091240D03*
D15*
X136126415Y-97891240D03*
D16*
X136346415Y-105841240D03*
D17*
X141346415Y-102091240D03*
D16*
X141346415Y-108041240D03*
X146346415Y-105841240D03*
D15*
X146566415Y-97891240D03*
D14*
X146846415Y-102091240D03*
D18*
X138071415Y-108041240D03*
X149621415Y-105841240D03*
%TD*%
D13*
%TO.C,*%
X125422537Y-119472453D03*
%TD*%
D11*
%TO.C,D1*%
X195276273Y-115870344D03*
D12*
X195276274Y-113835344D03*
X195276272Y-110285346D03*
D13*
X195276273Y-108250346D03*
%TD*%
D22*
%TO.C,REF\u002A\u002A*%
X205623433Y-71095019D03*
X202823433Y-71095019D03*
%TD*%
D18*
%TO.C,*%
X140727073Y-112115903D03*
%TD*%
D14*
%TO.C,SW13*%
X155101201Y-99344959D03*
D15*
X155381201Y-95144959D03*
D16*
X155601201Y-103094959D03*
D17*
X160601201Y-99344959D03*
D16*
X160601201Y-105294959D03*
X165601201Y-103094959D03*
D15*
X165821201Y-95144959D03*
D14*
X166101201Y-99344959D03*
D18*
X157326201Y-105294959D03*
X168876201Y-103094959D03*
%TD*%
D14*
%TO.C,SW6*%
X107123641Y-85225588D03*
D15*
X107403641Y-81025588D03*
D16*
X107623641Y-88975588D03*
D17*
X112623641Y-85225588D03*
D16*
X112623641Y-91175588D03*
X117623641Y-88975588D03*
D15*
X117843641Y-81025588D03*
D14*
X118123641Y-85225588D03*
D18*
X109348641Y-91175588D03*
X120898641Y-88975588D03*
%TD*%
D11*
%TO.C,D1*%
X190204099Y-115863788D03*
D12*
X190204100Y-113828788D03*
X190204098Y-110278790D03*
D13*
X190204099Y-108243790D03*
%TD*%
D23*
%TO.C,REF\u002A\u002A*%
X118755983Y-127353592D03*
D24*
X117305983Y-127353592D03*
%TD*%
D14*
%TO.C,SW10*%
X184134214Y-80085152D03*
D15*
X184414214Y-75885152D03*
D16*
X184634214Y-83835152D03*
D17*
X189634214Y-80085152D03*
D16*
X189634214Y-86035152D03*
X194634214Y-83835152D03*
D15*
X194854214Y-75885152D03*
D14*
X195134214Y-80085152D03*
D18*
X186359214Y-86035152D03*
X197909214Y-83835152D03*
%TD*%
D11*
%TO.C,D1*%
X157227745Y-115786303D03*
D12*
X157227746Y-113751303D03*
X157227744Y-110201305D03*
D13*
X157227745Y-108166305D03*
%TD*%
D11*
%TO.C,D1*%
X162311474Y-115785065D03*
D12*
X162311475Y-113750065D03*
X162311473Y-110200067D03*
D13*
X162311474Y-108165067D03*
%TD*%
D11*
%TO.C,D1*%
X180063007Y-115838066D03*
D12*
X180063008Y-113803066D03*
X180063006Y-110253068D03*
D13*
X180063007Y-108218068D03*
%TD*%
D14*
%TO.C,SW16*%
X144222563Y-125915886D03*
D15*
X144502563Y-121715886D03*
D16*
X144722563Y-129665886D03*
D17*
X149722563Y-125915886D03*
D16*
X149722563Y-131865886D03*
X154722563Y-129665886D03*
D15*
X154942563Y-121715886D03*
D14*
X155222563Y-125915886D03*
D18*
X146447563Y-131865886D03*
X157997563Y-129665886D03*
%TD*%
D11*
%TO.C,D1*%
X169911386Y-115807628D03*
D12*
X169911387Y-113772628D03*
X169911385Y-110222630D03*
D13*
X169911386Y-108187630D03*
%TD*%
D14*
%TO.C,SW9*%
X164870696Y-80097735D03*
D15*
X165150696Y-75897735D03*
D16*
X165370696Y-83847735D03*
D17*
X170370696Y-80097735D03*
D16*
X170370696Y-86047735D03*
X175370696Y-83847735D03*
D15*
X175590696Y-75897735D03*
D14*
X175870696Y-80097735D03*
D18*
X167095696Y-86047735D03*
X178645696Y-83847735D03*
%TD*%
D11*
%TO.C,D1*%
X197821341Y-115881315D03*
D12*
X197821342Y-113846315D03*
X197821340Y-110296317D03*
D13*
X197821341Y-108261317D03*
%TD*%
D25*
%TO.C,REF\u002A\u002A*%
X202334290Y-56333201D03*
X202334290Y-58083201D03*
X205834290Y-58083201D03*
X205834290Y-56333201D03*
%TD*%
D14*
%TO.C,SW2*%
X126387529Y-63583769D03*
D15*
X126667529Y-59383769D03*
D16*
X126887529Y-67333769D03*
D17*
X131887529Y-63583769D03*
D16*
X131887529Y-69533769D03*
X136887529Y-67333769D03*
D15*
X137107529Y-59383769D03*
D14*
X137387529Y-63583769D03*
D18*
X128612529Y-69533769D03*
X140162529Y-67333769D03*
%TD*%
D23*
%TO.C,REF\u002A\u002A*%
X118835000Y-120015000D03*
D24*
X117385000Y-120015000D03*
%TD*%
D26*
%TO.C,*%
X140636757Y-115728548D03*
%TD*%
D14*
%TO.C,SW5*%
X184123034Y-60827759D03*
D15*
X184403034Y-56627759D03*
D16*
X184623034Y-64577759D03*
D17*
X189623034Y-60827759D03*
D16*
X189623034Y-66777759D03*
X194623034Y-64577759D03*
D15*
X194843034Y-56627759D03*
D14*
X195123034Y-60827759D03*
D18*
X186348034Y-66777759D03*
X197898034Y-64577759D03*
%TD*%
D27*
%TO.C,REF\u002A\u002A*%
X148906101Y-113351222D03*
X148906101Y-114601222D03*
D28*
X146006101Y-110801222D03*
X146006101Y-117151222D03*
%TD*%
D14*
%TO.C,SW4*%
X164871125Y-60838451D03*
D15*
X165151125Y-56638451D03*
D16*
X165371125Y-64588451D03*
D17*
X170371125Y-60838451D03*
D16*
X170371125Y-66788451D03*
X175371125Y-64588451D03*
D15*
X175591125Y-56638451D03*
D14*
X175871125Y-60838451D03*
D18*
X167096125Y-66788451D03*
X178646125Y-64588451D03*
%TD*%
D11*
%TO.C,D1*%
X164845420Y-115800903D03*
D12*
X164845421Y-113765903D03*
X164845419Y-110215905D03*
D13*
X164845420Y-108180905D03*
%TD*%
D11*
%TO.C,D1*%
X159773246Y-115794347D03*
D12*
X159773247Y-113759347D03*
X159773245Y-110209349D03*
D13*
X159773246Y-108174349D03*
%TD*%
D29*
%TO.C,REF\u002A\u002A*%
X87975333Y-98611110D03*
X87975333Y-92411110D03*
X91675333Y-98611110D03*
X91675333Y-92411110D03*
%TD*%
D14*
%TO.C,SW15*%
X193596546Y-99323614D03*
D15*
X193876546Y-95123614D03*
D16*
X194096546Y-103073614D03*
D17*
X199096546Y-99323614D03*
D16*
X199096546Y-105273614D03*
X204096546Y-103073614D03*
D15*
X204316546Y-95123614D03*
D14*
X204596546Y-99323614D03*
D18*
X195821546Y-105273614D03*
X207371546Y-103073614D03*
%TD*%
D14*
%TO.C,SW14*%
X174346934Y-99342701D03*
D15*
X174626934Y-95142701D03*
D16*
X174846934Y-103092701D03*
D17*
X179846934Y-99342701D03*
D16*
X179846934Y-105292701D03*
X184846934Y-103092701D03*
D15*
X185066934Y-95142701D03*
D14*
X185346934Y-99342701D03*
D18*
X176571934Y-105292701D03*
X188121934Y-103092701D03*
%TD*%
D14*
%TO.C,SW3*%
X145621274Y-60858675D03*
D15*
X145901274Y-56658675D03*
D16*
X146121274Y-64608675D03*
D17*
X151121274Y-60858675D03*
D16*
X151121274Y-66808675D03*
X156121274Y-64608675D03*
D15*
X156341274Y-56658675D03*
D14*
X156621274Y-60858675D03*
D18*
X147846274Y-66808675D03*
X159396274Y-64608675D03*
%TD*%
D11*
%TO.C,D1*%
X182586424Y-115849188D03*
D12*
X182586425Y-113814188D03*
X182586423Y-110264190D03*
D13*
X182586424Y-108229190D03*
%TD*%
D14*
%TO.C,SW17*%
X163857563Y-127915886D03*
D15*
X164137563Y-123715886D03*
D16*
X164357563Y-131665886D03*
D17*
X169357563Y-127915886D03*
D16*
X169357563Y-133865886D03*
X174357563Y-131665886D03*
D15*
X174577563Y-123715886D03*
D14*
X174857563Y-127915886D03*
D18*
X166082563Y-133865886D03*
X177632563Y-131665886D03*
%TD*%
D14*
%TO.C,SW11*%
X116582818Y-104484021D03*
D15*
X116862818Y-100284021D03*
D16*
X117082818Y-108234021D03*
D17*
X122082818Y-104484021D03*
D16*
X122082818Y-110434021D03*
X127082818Y-108234021D03*
D15*
X127302818Y-100284021D03*
D14*
X127582818Y-104484021D03*
D18*
X118807818Y-110434021D03*
X130357818Y-108234021D03*
%TD*%
D11*
%TO.C,D1*%
X172445332Y-115823466D03*
D12*
X172445333Y-113788466D03*
X172445331Y-110238468D03*
D13*
X172445332Y-108203468D03*
%TD*%
D11*
%TO.C,D1*%
X192742327Y-115854506D03*
D12*
X192742328Y-113819506D03*
X192742326Y-110269508D03*
D13*
X192742327Y-108234508D03*
%TD*%
D14*
%TO.C,SW7*%
X126373171Y-82831693D03*
D15*
X126653171Y-78631693D03*
D16*
X126873171Y-86581693D03*
D17*
X131873171Y-82831693D03*
D16*
X131873171Y-88781693D03*
X136873171Y-86581693D03*
D15*
X137093171Y-78631693D03*
D14*
X137373171Y-82831693D03*
D18*
X128598171Y-88781693D03*
X140148171Y-86581693D03*
%TD*%
D13*
%TO.C,*%
X123517537Y-119498323D03*
%TD*%
D30*
%TO.C,REF\u002A\u002A*%
X120660037Y-114877341D03*
D31*
X123517537Y-128242342D03*
X125422537Y-128242343D03*
D30*
X123200038Y-114877341D03*
X118120037Y-114877341D03*
D32*
X130820037Y-132717341D03*
X133360037Y-132717341D03*
D33*
X134947537Y-119987341D03*
X134947537Y-118082341D03*
D34*
X117167537Y-125067341D03*
X117167537Y-122527341D03*
D35*
X119732638Y-122534785D03*
D36*
X119707537Y-125067341D03*
X119707537Y-122527341D03*
D35*
X119732638Y-125074785D03*
D32*
X118120037Y-132717341D03*
X120660037Y-132717341D03*
X123200037Y-132717341D03*
X125740037Y-132717341D03*
X128280037Y-132717341D03*
X133360037Y-114877341D03*
X130820037Y-114877341D03*
D30*
X128280037Y-114877341D03*
X125740037Y-114877341D03*
%TD*%
D13*
%TO.C,*%
X123542638Y-128249786D03*
%TD*%
D24*
%TO.C,REF\u002A\u002A*%
X117305983Y-127353592D03*
%TD*%
%TO.C,REF\u002A\u002A*%
X117385000Y-120015000D03*
%TD*%
D13*
%TO.C,*%
X125447638Y-128249787D03*
%TD*%
D20*
%TO.C,REF\u002A\u002A*%
X87881375Y-107038335D03*
X87881375Y-104038335D03*
%TD*%
M02*
