M48
; DRILL file {KiCad 9.0.2} date 2026-05-08T07:42:51+0900
; FORMAT={-:-/ absolute / metric / decimal}
; #@! TF.CreationDate,2026-05-08T07:42:51+09:00
; #@! TF.GenerationSoftware,Kicad,Pcbnew,9.0.2
; #@! TF.FileFunction,NonPlated,1,2,NPTH
FMAT,2
METRIC
; #@! TA.AperFunction,NonPlated,NPTH,ComponentDrill
T1C0.900
; #@! TA.AperFunction,NonPlated,NPTH,ComponentDrill
T2C0.991
; #@! TA.AperFunction,NonPlated,NPTH,ComponentDrill
T3C1.702
; #@! TA.AperFunction,NonPlated,NPTH,ComponentDrill
T4C3.000
; #@! TA.AperFunction,NonPlated,NPTH,ComponentDrill
T5C5.000
%
G90
G05
T1
X87.881Y-104.038
X87.881Y-104.038
X87.881Y-107.038
X87.881Y-107.038
T2
X97.615Y-100.286
X107.404Y-81.026
X107.41Y-61.789
X108.055Y-100.286
X116.863Y-100.284
X117.844Y-81.026
X117.85Y-61.789
X126.653Y-78.632
X126.668Y-59.384
X127.303Y-100.284
X136.126Y-97.891
X137.093Y-78.632
X137.108Y-59.384
X144.503Y-121.716
X145.9Y-75.904
X145.901Y-56.659
X146.566Y-97.891
X154.943Y-121.716
X155.381Y-95.145
X156.34Y-75.904
X156.341Y-56.659
X164.138Y-123.716
X165.151Y-75.898
X165.151Y-56.638
X165.821Y-95.145
X174.578Y-123.716
X174.627Y-95.143
X175.591Y-75.898
X175.591Y-56.638
X183.543Y-124.796
X184.403Y-56.628
X184.414Y-75.885
X185.067Y-95.143
X193.877Y-95.124
X193.983Y-124.796
X194.843Y-56.628
X194.854Y-75.885
X204.317Y-95.124
T3
X97.335Y-104.486
X107.124Y-85.226
X107.13Y-65.989
X108.335Y-104.486
X116.583Y-104.484
X118.124Y-85.226
X118.13Y-65.989
X126.373Y-82.832
X126.388Y-63.584
X127.583Y-104.484
X135.846Y-102.091
X137.373Y-82.832
X137.388Y-63.584
X144.223Y-125.916
X145.62Y-80.104
X145.621Y-60.859
X146.846Y-102.091
X155.101Y-99.345
X155.223Y-125.916
X156.62Y-80.104
X156.621Y-60.859
X163.858Y-127.916
X164.871Y-80.098
X164.871Y-60.838
X166.101Y-99.345
X174.347Y-99.343
X174.858Y-127.916
X175.871Y-80.098
X175.871Y-60.838
X183.263Y-128.996
X184.123Y-60.828
X184.134Y-80.085
X185.347Y-99.343
X193.597Y-99.324
X194.263Y-128.996
X195.123Y-60.828
X195.134Y-80.085
X204.597Y-99.324
T4
X97.835Y-108.236
X102.835Y-110.436
X107.624Y-88.976
X107.63Y-69.739
X107.835Y-108.236
X112.624Y-91.176
X112.63Y-71.939
X117.083Y-108.234
X117.624Y-88.976
X117.63Y-69.739
X122.083Y-110.434
X126.873Y-86.582
X126.888Y-67.334
X127.083Y-108.234
X131.873Y-88.782
X131.888Y-69.534
X136.346Y-105.841
X136.873Y-86.582
X136.888Y-67.334
X141.346Y-108.041
X144.723Y-129.666
X146.12Y-83.854
X146.121Y-64.609
X146.346Y-105.841
X149.723Y-131.866
X151.12Y-86.054
X151.121Y-66.809
X154.723Y-129.666
X155.601Y-103.095
X156.12Y-83.854
X156.121Y-64.609
X160.601Y-105.295
X164.358Y-131.666
X165.371Y-83.848
X165.371Y-64.588
X165.601Y-103.095
X169.358Y-133.866
X170.371Y-86.048
X170.371Y-66.788
X174.358Y-131.666
X174.847Y-103.093
X175.371Y-83.848
X175.371Y-64.588
X179.847Y-105.293
X183.763Y-132.746
X184.623Y-64.578
X184.634Y-83.835
X184.847Y-103.093
X188.763Y-134.946
X189.623Y-66.778
X189.634Y-86.035
X193.763Y-132.746
X194.097Y-103.074
X194.623Y-64.578
X194.634Y-83.835
X199.097Y-105.274
X204.097Y-103.074
T5
X102.835Y-104.486
X112.624Y-85.226
X112.63Y-65.989
X122.083Y-104.484
X131.873Y-82.832
X131.888Y-63.584
X141.346Y-102.091
X149.723Y-125.916
X151.12Y-80.104
X151.121Y-60.859
X160.601Y-99.345
X169.358Y-127.916
X170.371Y-80.098
X170.371Y-60.838
X179.847Y-99.343
X188.763Y-128.996
X189.623Y-60.828
X189.634Y-80.085
X199.097Y-99.324
M30
