%TF.GenerationSoftware,KiCad,Pcbnew,9.0.2*%
%TF.CreationDate,2026-05-08T07:42:56+09:00*%
%TF.ProjectId,mapadubu_19.05mm,6d617061-6475-4627-955f-31392e30356d,rev?*%
%TF.SameCoordinates,Original*%
%TF.FileFunction,Profile,NP*%
%FSLAX46Y46*%
G04 Gerber Fmt 4.6, Leading zero omitted, Abs format (unit mm)*
G04 Created by KiCad (PCBNEW 9.0.2) date 2026-05-08 07:42:56*
%MOMM*%
%LPD*%
G01*
G04 APERTURE LIST*
%TA.AperFunction,Profile*%
%ADD10C,0.050000*%
%TD*%
G04 APERTURE END LIST*
D10*
X177722563Y-138050886D02*
G75*
G02*
X178222614Y-138550886I37J-500014D01*
G01*
X178721887Y-139053534D02*
G75*
G02*
X178222573Y-138543759I13J499434D01*
G01*
X202857994Y-113267385D02*
G75*
G02*
X203357994Y-112767394I500006J-15D01*
G01*
X100006168Y-107500516D02*
G75*
G02*
X98006168Y-107500516I-1000000J0D01*
G01*
X98006168Y-107500516D02*
G75*
G02*
X100006168Y-107500516I1000000J0D01*
G01*
X138546100Y-49413396D02*
X208595572Y-49414455D01*
X202857994Y-113267385D02*
X202896968Y-138566300D01*
X159229623Y-137559215D02*
X159222563Y-136550886D01*
X171366284Y-96451886D02*
G75*
G02*
X169366284Y-96451886I-1000000J0D01*
G01*
X169366284Y-96451886D02*
G75*
G02*
X171366284Y-96451886I1000000J0D01*
G01*
X102075322Y-90163546D02*
G75*
G02*
X101575322Y-90663522I-500022J46D01*
G01*
X119700000Y-120000000D02*
X119700000Y-127500000D01*
X86994966Y-114970366D02*
G75*
G02*
X86495034Y-114470366I34J499966D01*
G01*
X86995300Y-90661276D02*
X101575322Y-90663564D01*
X132647142Y-100230614D02*
G75*
G02*
X130647142Y-100230614I-1000000J0D01*
G01*
X130647142Y-100230614D02*
G75*
G02*
X132647142Y-100230614I1000000J0D01*
G01*
X114226225Y-114975225D02*
X86995000Y-114969870D01*
X86495035Y-114470366D02*
X86495279Y-91161300D01*
X208588840Y-112765886D02*
X203357994Y-112767385D01*
X138039685Y-52550886D02*
X138043088Y-49913396D01*
X180104858Y-67581912D02*
G75*
G02*
X178104858Y-67581912I-1000000J0D01*
G01*
X178104858Y-67581912D02*
G75*
G02*
X180104858Y-67581912I1000000J0D01*
G01*
X140828322Y-51095184D02*
G75*
G02*
X138828322Y-51095184I-1000000J0D01*
G01*
X138828322Y-51095184D02*
G75*
G02*
X140828322Y-51095184I1000000J0D01*
G01*
X158722563Y-136050886D02*
X115219275Y-136048842D01*
X120200000Y-128000000D02*
X126200000Y-128000000D01*
X128130234Y-74603537D02*
G75*
G02*
X126130234Y-74603537I-1000000J0D01*
G01*
X126130234Y-74603537D02*
G75*
G02*
X128130234Y-74603537I1000000J0D01*
G01*
X114719275Y-135548843D02*
X114726225Y-115475224D01*
X208589368Y-49414416D02*
G75*
G02*
X209089384Y-49914416I32J-499984D01*
G01*
X159729623Y-138051635D02*
G75*
G02*
X159229565Y-137551635I-23J500035D01*
G01*
X138795000Y-133350000D02*
G75*
G02*
X136795000Y-133350000I-1000000J0D01*
G01*
X136795000Y-133350000D02*
G75*
G02*
X138795000Y-133350000I1000000J0D01*
G01*
X138039686Y-52550886D02*
G75*
G02*
X137539718Y-53050886I-499986J-14D01*
G01*
X91805000Y-113030000D02*
G75*
G02*
X89805000Y-113030000I-1000000J0D01*
G01*
X89805000Y-113030000D02*
G75*
G02*
X91805000Y-113030000I1000000J0D01*
G01*
X122119026Y-53060495D02*
X137539700Y-53050886D01*
X208214246Y-51279956D02*
G75*
G02*
X206214246Y-51279956I-1000000J0D01*
G01*
X206214246Y-51279956D02*
G75*
G02*
X208214246Y-51279956I1000000J0D01*
G01*
X177722563Y-138050886D02*
X159729623Y-138051635D01*
X100330000Y-59520959D02*
X101577166Y-59519675D01*
X101330000Y-57785000D02*
G75*
G02*
X99330000Y-57785000I-1000000J0D01*
G01*
X99330000Y-57785000D02*
G75*
G02*
X101330000Y-57785000I1000000J0D01*
G01*
X119700000Y-120000000D02*
G75*
G02*
X120200000Y-119500000I500000J0D01*
G01*
X102075322Y-90163546D02*
X102077746Y-60019674D01*
X121619027Y-53560495D02*
X121619704Y-55565300D01*
X208332553Y-110935056D02*
G75*
G02*
X206332553Y-110935056I-1000000J0D01*
G01*
X206332553Y-110935056D02*
G75*
G02*
X208332553Y-110935056I1000000J0D01*
G01*
X114226225Y-114975224D02*
G75*
G02*
X114726176Y-115475224I-25J-499976D01*
G01*
X126700000Y-127500000D02*
G75*
G02*
X126200000Y-128000000I-500000J0D01*
G01*
X126700000Y-120000000D02*
X126700000Y-127500000D01*
X138043087Y-49913396D02*
G75*
G02*
X138543087Y-49413387I500013J-4D01*
G01*
X158722563Y-136050886D02*
G75*
G02*
X159222614Y-136550886I37J-500014D01*
G01*
X86495279Y-91161276D02*
G75*
G02*
X86995279Y-90661279I500021J-24D01*
G01*
X202396968Y-139066338D02*
X178721887Y-139053533D01*
X179705863Y-127729637D02*
G75*
G02*
X177705863Y-127729637I-1000000J0D01*
G01*
X177705863Y-127729637D02*
G75*
G02*
X179705863Y-127729637I1000000J0D01*
G01*
X100330000Y-59520959D02*
G75*
G02*
X100330000Y-56049041I0J1735959D01*
G01*
X202896968Y-138566338D02*
G75*
G02*
X202396968Y-139066268I-499968J38D01*
G01*
X121619704Y-55565267D02*
G75*
G02*
X121119704Y-56065304I-500004J-33D01*
G01*
X126200000Y-119500000D02*
G75*
G02*
X126700000Y-120000000I0J-500000D01*
G01*
X209088840Y-112264681D02*
G75*
G02*
X208588840Y-112764740I-500040J-19D01*
G01*
X115219275Y-136048843D02*
G75*
G02*
X114719257Y-135548843I25J500043D01*
G01*
X101577166Y-59519674D02*
G75*
G02*
X102077126Y-60019674I-66J-500026D01*
G01*
X120200000Y-128000000D02*
G75*
G02*
X119700000Y-127500000I0J500000D01*
G01*
X100330000Y-56049041D02*
X121125782Y-56065267D01*
X121619026Y-53560495D02*
G75*
G02*
X122119026Y-53060526I499974J-5D01*
G01*
X120200000Y-119500000D02*
X126200000Y-119500000D01*
X209089368Y-49918399D02*
X209088810Y-112259223D01*
M02*
