%TF.GenerationSoftware,KiCad,Pcbnew,9.0.2*%
%TF.CreationDate,2026-05-08T07:42:56+09:00*%
%TF.ProjectId,mapadubu_19.05mm,6d617061-6475-4627-955f-31392e30356d,rev?*%
%TF.SameCoordinates,Original*%
%TF.FileFunction,Copper,L1,Top*%
%TF.FilePolarity,Positive*%
%FSLAX46Y46*%
G04 Gerber Fmt 4.6, Leading zero omitted, Abs format (unit mm)*
G04 Created by KiCad (PCBNEW 9.0.2) date 2026-05-08 07:42:56*
%MOMM*%
%LPD*%
G01*
G04 APERTURE LIST*
G04 Aperture macros list*
%AMRoundRect*
0 Rectangle with rounded corners*
0 $1 Rounding radius*
0 $2 $3 $4 $5 $6 $7 $8 $9 X,Y pos of 4 corners*
0 Add a 4 corners polygon primitive as box body*
4,1,4,$2,$3,$4,$5,$6,$7,$8,$9,$2,$3,0*
0 Add four circle primitives for the rounded corners*
1,1,$1+$1,$2,$3*
1,1,$1+$1,$4,$5*
1,1,$1+$1,$6,$7*
1,1,$1+$1,$8,$9*
0 Add four rect primitives between the rounded corners*
20,1,$1+$1,$2,$3,$4,$5,0*
20,1,$1+$1,$4,$5,$6,$7,0*
20,1,$1+$1,$6,$7,$8,$9,0*
20,1,$1+$1,$8,$9,$2,$3,0*%
%AMOutline5P*
0 Free polygon, 5 corners , with rotation*
0 The origin of the aperture is its center*
0 number of corners: always 5*
0 $1 to $10 corner X, Y*
0 $11 Rotation angle, in degrees counterclockwise*
0 create outline with 5 corners*
4,1,5,$1,$2,$3,$4,$5,$6,$7,$8,$9,$10,$1,$2,$11*%
%AMOutline6P*
0 Free polygon, 6 corners , with rotation*
0 The origin of the aperture is its center*
0 number of corners: always 6*
0 $1 to $12 corner X, Y*
0 $13 Rotation angle, in degrees counterclockwise*
0 create outline with 6 corners*
4,1,6,$1,$2,$3,$4,$5,$6,$7,$8,$9,$10,$11,$12,$1,$2,$13*%
%AMOutline7P*
0 Free polygon, 7 corners , with rotation*
0 The origin of the aperture is its center*
0 number of corners: always 7*
0 $1 to $14 corner X, Y*
0 $15 Rotation angle, in degrees counterclockwise*
0 create outline with 7 corners*
4,1,7,$1,$2,$3,$4,$5,$6,$7,$8,$9,$10,$11,$12,$13,$14,$1,$2,$15*%
%AMOutline8P*
0 Free polygon, 8 corners , with rotation*
0 The origin of the aperture is its center*
0 number of corners: always 8*
0 $1 to $16 corner X, Y*
0 $17 Rotation angle, in degrees counterclockwise*
0 create outline with 8 corners*
4,1,8,$1,$2,$3,$4,$5,$6,$7,$8,$9,$10,$11,$12,$13,$14,$15,$16,$1,$2,$17*%
%AMFreePoly0*
4,1,6,1.000000,0.000000,0.500000,-0.750000,-0.500000,-0.750000,-0.500000,0.750000,0.500000,0.750000,1.000000,0.000000,1.000000,0.000000,$1*%
%AMFreePoly1*
4,1,6,0.500000,-0.750000,-0.650000,-0.750000,-0.150000,0.000000,-0.650000,0.750000,0.500000,0.750000,0.500000,-0.750000,0.500000,-0.750000,$1*%
G04 Aperture macros list end*
%TA.AperFunction,ComponentPad*%
%ADD10R,1.397000X1.397000*%
%TD*%
%TA.AperFunction,SMDPad,CuDef*%
%ADD11R,0.500000X2.000000*%
%TD*%
%TA.AperFunction,SMDPad,CuDef*%
%ADD12R,0.940000X1.400000*%
%TD*%
%TA.AperFunction,ComponentPad*%
%ADD13C,1.397000*%
%TD*%
%TA.AperFunction,SMDPad,CuDef*%
%ADD14R,2.600000X2.600000*%
%TD*%
%TA.AperFunction,SMDPad,CuDef*%
%ADD15R,0.800000X1.000000*%
%TD*%
%TA.AperFunction,SMDPad,CuDef*%
%ADD16R,1.500000X0.700000*%
%TD*%
%TA.AperFunction,SMDPad,CuDef*%
%ADD17RoundRect,0.250000X0.375000X0.625000X-0.375000X0.625000X-0.375000X-0.625000X0.375000X-0.625000X0*%
%TD*%
%TA.AperFunction,SMDPad,CuDef*%
%ADD18FreePoly0,180.000000*%
%TD*%
%TA.AperFunction,ComponentPad*%
%ADD19FreePoly1,180.000000*%
%TD*%
%TA.AperFunction,SMDPad,CuDef*%
%ADD20R,1.600000X0.850000*%
%TD*%
%TA.AperFunction,SMDPad,CuDef*%
%ADD21Outline5P,-1.300000X0.260000X-0.260000X1.300000X1.300000X1.300000X1.300000X-1.300000X-1.300000X-1.300000X0.000000*%
%TD*%
%TA.AperFunction,SMDPad,CuDef*%
%ADD22RoundRect,0.200000X-0.600000X0.200000X-0.600000X-0.200000X0.600000X-0.200000X0.600000X0.200000X0*%
%TD*%
%TA.AperFunction,SMDPad,CuDef*%
%ADD23RoundRect,0.250001X-1.249999X0.799999X-1.249999X-0.799999X1.249999X-0.799999X1.249999X0.799999X0*%
%TD*%
%TA.AperFunction,SMDPad,CuDef*%
%ADD24RoundRect,0.275000X0.275000X-0.625000X0.275000X0.625000X-0.275000X0.625000X-0.275000X-0.625000X0*%
%TD*%
%TA.AperFunction,SMDPad,CuDef*%
%ADD25RoundRect,0.450000X-0.450000X1.300000X-0.450000X-1.300000X0.450000X-1.300000X0.450000X1.300000X0*%
%TD*%
%TA.AperFunction,SMDPad,CuDef*%
%ADD26RoundRect,0.337500X0.337500X-0.912500X0.337500X0.912500X-0.337500X0.912500X-0.337500X-0.912500X0*%
%TD*%
%TA.AperFunction,SMDPad,CuDef*%
%ADD27RoundRect,0.450000X0.450000X-1.300000X0.450000X1.300000X-0.450000X1.300000X-0.450000X-1.300000X0*%
%TD*%
%TA.AperFunction,SMDPad,CuDef*%
%ADD28RoundRect,0.337500X0.912500X0.337500X-0.912500X0.337500X-0.912500X-0.337500X0.912500X-0.337500X0*%
%TD*%
%TA.AperFunction,SMDPad,CuDef*%
%ADD29C,1.500000*%
%TD*%
%TA.AperFunction,ComponentPad*%
%ADD30RoundRect,0.250000X0.500000X-0.500000X0.500000X0.500000X-0.500000X0.500000X-0.500000X-0.500000X0*%
%TD*%
%TA.AperFunction,ComponentPad*%
%ADD31RoundRect,0.250000X-0.500000X0.500000X-0.500000X-0.500000X0.500000X-0.500000X0.500000X0.500000X0*%
%TD*%
%TA.AperFunction,ViaPad*%
%ADD32C,0.600000*%
%TD*%
%TA.AperFunction,Conductor*%
%ADD33C,0.200000*%
%TD*%
G04 APERTURE END LIST*
D10*
%TO.P,D1,1,K*%
%TO.N,ROW2*%
X174990833Y-115831510D03*
D11*
%TO.N,N/C*%
X174990833Y-114771511D03*
D12*
X174990834Y-113796510D03*
%TO.P,D1,2,A*%
X174990832Y-110246512D03*
D11*
X174990833Y-109271511D03*
D13*
%TO.N,Net-(D8-A)*%
X174990833Y-108211512D03*
%TD*%
D14*
%TO.P,SW19,1,1*%
%TO.N,Net-(D19-A)*%
X99559765Y-110436245D03*
%TO.P,SW19,2,2*%
%TO.N,COL1*%
X111109765Y-108236245D03*
%TD*%
%TO.P,SW1,1,1*%
%TO.N,Net-(D1-A)*%
X109354976Y-71938903D03*
%TO.P,SW1,2,2*%
%TO.N,COL1*%
X120904976Y-69738903D03*
%TD*%
D10*
%TO.P,D1,1,K*%
%TO.N,ROW1*%
X167373158Y-115816910D03*
D11*
%TO.N,N/C*%
X167373158Y-114756911D03*
D12*
X167373159Y-113781910D03*
%TO.P,D1,2,A*%
X167373157Y-110231912D03*
D11*
X167373158Y-109256911D03*
D13*
%TO.N,Net-(D2-A)*%
X167373158Y-108196912D03*
%TD*%
D14*
%TO.P,SW18,1,1*%
%TO.N,Net-(D18-A)*%
X185487563Y-134945886D03*
%TO.P,SW18,2,2*%
%TO.N,COL5*%
X197037563Y-132745886D03*
%TD*%
D10*
%TO.P,D1,1,K*%
%TO.N,ROW1*%
X177529061Y-115822228D03*
D11*
%TO.N,N/C*%
X177529061Y-114762229D03*
D12*
X177529062Y-113787228D03*
%TO.P,D1,2,A*%
X177529060Y-110237230D03*
D11*
X177529061Y-109262229D03*
D13*
%TO.N,Net-(D3-A)*%
X177529061Y-108202230D03*
%TD*%
D10*
%TO.P,D1,1,K*%
%TO.N,ROW1*%
X154693799Y-115770465D03*
D11*
%TO.N,N/C*%
X154693799Y-114710466D03*
D12*
X154693800Y-113735465D03*
%TO.P,D1,2,A*%
X154693798Y-110185467D03*
D11*
X154693799Y-109210466D03*
D13*
%TO.N,Net-(D1-A)*%
X154693799Y-108150467D03*
%TD*%
D14*
%TO.P,SW8,1,1*%
%TO.N,Net-(D8-A)*%
X147844942Y-86054205D03*
%TO.P,SW8,2,2*%
%TO.N,COL3*%
X159394942Y-83854205D03*
%TD*%
D15*
%TO.P,REF\u002A\u002A,*%
%TO.N,*%
X88991375Y-101888335D03*
X86781375Y-101888335D03*
X88991375Y-109188335D03*
X86781375Y-109188335D03*
D16*
%TO.P,REF\u002A\u002A,1*%
%TO.N,N/C*%
X89641375Y-103288335D03*
%TO.P,REF\u002A\u002A,3*%
%TO.N,batt+*%
X89641375Y-107788335D03*
%TO.P,REF\u002A\u002A,e*%
%TO.N,vbatt+*%
X89641375Y-106288335D03*
%TD*%
D10*
%TO.P,D1,1,K*%
%TO.N,ROW2*%
X185124652Y-115839906D03*
D11*
%TO.N,N/C*%
X185124652Y-114779907D03*
D12*
X185124653Y-113804906D03*
%TO.P,D1,2,A*%
X185124651Y-110254908D03*
D11*
X185124652Y-109279907D03*
D13*
%TO.N,Net-(D9-A)*%
X185124652Y-108219908D03*
%TD*%
D10*
%TO.P,D1,1,K*%
%TO.N,ROW4*%
X152155571Y-115779747D03*
D11*
%TO.N,N/C*%
X152155571Y-114719748D03*
D12*
X152155572Y-113744747D03*
%TO.P,D1,2,A*%
X152155570Y-110194749D03*
D11*
X152155571Y-109219748D03*
D13*
%TO.N,Net-(D19-A)*%
X152155571Y-108159749D03*
%TD*%
D17*
%TO.P,REF\u002A\u002A,1*%
%TO.N,DIN*%
X205718433Y-66860019D03*
%TO.N,DINN*%
X202918433Y-66860019D03*
%TD*%
D10*
%TO.P,D1,1,K*%
%TO.N,ROW1*%
X187658598Y-115855744D03*
D11*
%TO.N,N/C*%
X187658598Y-114795745D03*
D12*
X187658599Y-113820744D03*
%TO.P,D1,2,A*%
X187658597Y-110270746D03*
D11*
X187658598Y-109295745D03*
D13*
%TO.N,Net-(D4-A)*%
X187658598Y-108235746D03*
%TD*%
D14*
%TO.P,SW12,1,1*%
%TO.N,Net-(D12-A)*%
X138071415Y-108041240D03*
%TO.P,SW12,2,2*%
%TO.N,COL2*%
X149621415Y-105841240D03*
%TD*%
D13*
%TO.P,,*%
%TO.N,batt+*%
X125422537Y-119472453D03*
%TD*%
D10*
%TO.P,D1,1,K*%
%TO.N,ROW2*%
X195276273Y-115870344D03*
D11*
%TO.N,N/C*%
X195276273Y-114810345D03*
D12*
X195276274Y-113835344D03*
%TO.P,D1,2,A*%
X195276272Y-110285346D03*
D11*
X195276273Y-109310345D03*
D13*
%TO.N,Net-(D10-A)*%
X195276273Y-108250346D03*
%TD*%
D17*
%TO.P,REF\u002A\u002A,1*%
%TO.N,VCC*%
X205623433Y-71095019D03*
%TO.P,REF\u002A\u002A,2*%
%TO.N,GND*%
X202823433Y-71095019D03*
%TD*%
D14*
%TO.P,,batt+,2*%
%TO.N,vbatt+*%
X140727073Y-112115903D03*
%TD*%
%TO.P,SW13,1,1*%
%TO.N,Net-(D13-A)*%
X157326201Y-105294959D03*
%TO.P,SW13,2,2*%
%TO.N,COL3*%
X168876201Y-103094959D03*
%TD*%
%TO.P,SW6,1,1*%
%TO.N,Net-(D6-A)*%
X109348641Y-91175588D03*
%TO.P,SW6,2,2*%
%TO.N,COL1*%
X120898641Y-88975588D03*
%TD*%
D10*
%TO.P,D1,1,K*%
%TO.N,ROW4*%
X190204099Y-115863788D03*
D11*
%TO.N,N/C*%
X190204099Y-114803789D03*
D12*
X190204100Y-113828788D03*
%TO.P,D1,2,A*%
X190204098Y-110278790D03*
D11*
X190204099Y-109303789D03*
D13*
%TO.N,Net-(D18-A)*%
X190204099Y-108243790D03*
%TD*%
D18*
%TO.P,REF\u002A\u002A,1*%
%TO.N,tlbr*%
X118755983Y-127353592D03*
D19*
%TO.P,REF\u002A\u002A,2*%
%TO.N,GND*%
X117305983Y-127353592D03*
%TD*%
D14*
%TO.P,SW10,1,1*%
%TO.N,Net-(D10-A)*%
X186359214Y-86035152D03*
%TO.P,SW10,2,2*%
%TO.N,COL5*%
X197909214Y-83835152D03*
%TD*%
D10*
%TO.P,D1,1,K*%
%TO.N,ROW2*%
X157227745Y-115786303D03*
D11*
%TO.N,N/C*%
X157227745Y-114726304D03*
D12*
X157227746Y-113751303D03*
%TO.P,D1,2,A*%
X157227744Y-110201305D03*
D11*
X157227745Y-109226304D03*
D13*
%TO.N,Net-(D6-A)*%
X157227745Y-108166305D03*
%TD*%
D10*
%TO.P,D1,1,K*%
%TO.N,ROW3*%
X162311474Y-115785065D03*
D11*
%TO.N,N/C*%
X162311474Y-114725066D03*
D12*
X162311475Y-113750065D03*
%TO.P,D1,2,A*%
X162311473Y-110200067D03*
D11*
X162311474Y-109225066D03*
D13*
%TO.N,Net-(D12-A)*%
X162311474Y-108165067D03*
%TD*%
D10*
%TO.P,D1,1,K*%
%TO.N,ROW4*%
X180063007Y-115838066D03*
D11*
%TO.N,N/C*%
X180063007Y-114778067D03*
D12*
X180063008Y-113803066D03*
%TO.P,D1,2,A*%
X180063006Y-110253068D03*
D11*
X180063007Y-109278067D03*
D13*
%TO.N,Net-(D17-A)*%
X180063007Y-108218068D03*
%TD*%
D14*
%TO.P,SW16,1,1*%
%TO.N,Net-(D16-A)*%
X146447563Y-131865886D03*
%TO.P,SW16,2,2*%
%TO.N,COL3*%
X157997563Y-129665886D03*
%TD*%
D10*
%TO.P,D1,1,K*%
%TO.N,ROW4*%
X169911386Y-115807628D03*
D11*
X169911386Y-114747629D03*
D12*
X169911387Y-113772628D03*
%TO.P,D1,2,A*%
%TO.N,N/C*%
X169911385Y-110222630D03*
D11*
X169911386Y-109247629D03*
D13*
%TO.N,Net-(D16-A)*%
X169911386Y-108187630D03*
%TD*%
D14*
%TO.P,SW9,1,1*%
%TO.N,Net-(D9-A)*%
X167095696Y-86047735D03*
%TO.P,SW9,2,2*%
%TO.N,COL4*%
X178645696Y-83847735D03*
%TD*%
D10*
%TO.P,D1,1,K*%
%TO.N,ROW1*%
X197821341Y-115881315D03*
D11*
%TO.N,N/C*%
X197821341Y-114821316D03*
D12*
X197821342Y-113846315D03*
%TO.P,D1,2,A*%
X197821340Y-110296317D03*
D11*
X197821341Y-109321316D03*
D13*
%TO.N,Net-(D5-A)*%
X197821341Y-108261317D03*
%TD*%
D20*
%TO.P,REF\u002A\u002A,1*%
%TO.N,DINN*%
X202334290Y-56333201D03*
%TO.P,REF\u002A\u002A,2*%
%TO.N,GND*%
X202334290Y-58083201D03*
%TO.P,REF\u002A\u002A,3*%
%TO.N,N/C*%
X205834290Y-58083201D03*
%TO.P,REF\u002A\u002A,4*%
%TO.N,VCC*%
X205834290Y-56333201D03*
%TD*%
D14*
%TO.P,SW2,1,1*%
%TO.N,Net-(D2-A)*%
X128612529Y-69533769D03*
%TO.P,SW2,2,2*%
%TO.N,COL2*%
X140162529Y-67333769D03*
%TD*%
D18*
%TO.P,REF\u002A\u002A,1*%
%TO.N,trbl*%
X118835000Y-120015000D03*
D19*
%TO.P,REF\u002A\u002A,2*%
%TO.N,reset*%
X117385000Y-120015000D03*
%TD*%
D21*
%TO.P,,batt-,2*%
%TO.N,batt-*%
X140636757Y-115728548D03*
%TD*%
D14*
%TO.P,SW5,1,1*%
%TO.N,Net-(D5-A)*%
X186348034Y-66777759D03*
%TO.P,SW5,2,2*%
%TO.N,COL5*%
X197898034Y-64577759D03*
%TD*%
D22*
%TO.P,REF\u002A\u002A,1*%
%TO.N,vbatt+*%
X148906101Y-113351222D03*
%TO.P,REF\u002A\u002A,2*%
%TO.N,batt-*%
X148906101Y-114601222D03*
D23*
%TO.P,REF\u002A\u002A,MP*%
%TO.N,N/C*%
X146006101Y-110801222D03*
X146006101Y-117151222D03*
%TD*%
D14*
%TO.P,SW4,1,1*%
%TO.N,Net-(D4-A)*%
X167096125Y-66788451D03*
%TO.P,SW4,2,2*%
%TO.N,COL4*%
X178646125Y-64588451D03*
%TD*%
D10*
%TO.P,D1,1,K*%
%TO.N,ROW2*%
X164845420Y-115800903D03*
D11*
%TO.N,N/C*%
X164845420Y-114740904D03*
D12*
X164845421Y-113765903D03*
%TO.P,D1,2,A*%
X164845419Y-110215905D03*
D11*
X164845420Y-109240904D03*
D13*
%TO.N,Net-(D7-A)*%
X164845420Y-108180905D03*
%TD*%
D10*
%TO.P,D1,1,K*%
%TO.N,ROW3*%
X159773246Y-115794347D03*
D11*
%TO.N,N/C*%
X159773246Y-114734348D03*
D12*
X159773247Y-113759347D03*
%TO.P,D1,2,A*%
X159773245Y-110209349D03*
D11*
X159773246Y-109234348D03*
D13*
%TO.N,Net-(D11-A)*%
X159773246Y-108174349D03*
%TD*%
D24*
%TO.P,REF\u002A\u002A,1*%
%TO.N,reset*%
X87975333Y-98611110D03*
X87975333Y-92411110D03*
%TO.P,REF\u002A\u002A,2*%
%TO.N,GND*%
X91675333Y-98611110D03*
X91675333Y-92411110D03*
%TD*%
D14*
%TO.P,SW15,1,1*%
%TO.N,Net-(D15-A)*%
X195821546Y-105273614D03*
%TO.P,SW15,2,2*%
%TO.N,COL5*%
X207371546Y-103073614D03*
%TD*%
%TO.P,SW14,1,1*%
%TO.N,Net-(D14-A)*%
X176571934Y-105292701D03*
%TO.P,SW14,2,2*%
%TO.N,COL4*%
X188121934Y-103092701D03*
%TD*%
%TO.P,SW3,1,1*%
%TO.N,Net-(D3-A)*%
X147846274Y-66808675D03*
%TO.P,SW3,2,2*%
%TO.N,COL3*%
X159396274Y-64608675D03*
%TD*%
D10*
%TO.P,D1,1,K*%
%TO.N,ROW3*%
X182586424Y-115849188D03*
D11*
%TO.N,N/C*%
X182586424Y-114789189D03*
D12*
X182586425Y-113814188D03*
%TO.P,D1,2,A*%
X182586423Y-110264190D03*
D11*
X182586424Y-109289189D03*
D13*
%TO.N,Net-(D14-A)*%
X182586424Y-108229190D03*
%TD*%
D14*
%TO.P,SW17,1,1*%
%TO.N,Net-(D17-A)*%
X166082563Y-133865886D03*
%TO.P,SW17,2,2*%
%TO.N,COL4*%
X177632563Y-131665886D03*
%TD*%
%TO.P,SW11,1,1*%
%TO.N,Net-(D11-A)*%
X118807818Y-110434021D03*
%TO.P,SW11,2,2*%
%TO.N,COL1*%
X130357818Y-108234021D03*
%TD*%
D10*
%TO.P,D1,1,K*%
%TO.N,ROW3*%
X172445332Y-115823466D03*
D11*
%TO.N,N/C*%
X172445332Y-114763467D03*
D12*
X172445333Y-113788466D03*
%TO.P,D1,2,A*%
X172445331Y-110238468D03*
D11*
X172445332Y-109263467D03*
D13*
%TO.N,Net-(D13-A)*%
X172445332Y-108203468D03*
%TD*%
D10*
%TO.P,D1,1,K*%
%TO.N,ROW3*%
X192742327Y-115854506D03*
D11*
%TO.N,N/C*%
X192742327Y-114794507D03*
D12*
X192742328Y-113819506D03*
%TO.P,D1,2,A*%
X192742326Y-110269508D03*
D11*
X192742327Y-109294507D03*
D13*
%TO.N,Net-(D15-A)*%
X192742327Y-108234508D03*
%TD*%
D14*
%TO.P,SW7,1,1*%
%TO.N,Net-(D7-A)*%
X128598171Y-88781693D03*
%TO.P,SW7,2,2*%
%TO.N,COL2*%
X140148171Y-86581693D03*
%TD*%
D13*
%TO.P,,*%
%TO.N,batt-*%
X123517537Y-119498323D03*
%TD*%
D25*
%TO.P,REF\u002A\u002A,*%
%TO.N,GND*%
X120660037Y-114877341D03*
D26*
%TO.N,*%
X123517537Y-128242342D03*
X125422537Y-128242343D03*
D25*
%TO.P,REF\u002A\u002A,3v3*%
%TO.N,VCC*%
X123200038Y-114877341D03*
%TO.P,REF\u002A\u002A,5V*%
%TO.N,5v*%
X118120037Y-114877341D03*
D27*
%TO.P,REF\u002A\u002A,6*%
%TO.N,N/C*%
X130820037Y-132717341D03*
%TO.P,REF\u002A\u002A,7*%
%TO.N,DIN*%
X133360037Y-132717341D03*
D28*
%TO.P,REF\u002A\u002A,17*%
%TO.N,N/C*%
X134947537Y-119987341D03*
%TO.P,REF\u002A\u002A,18*%
X134947537Y-118082341D03*
D29*
%TO.P,REF\u002A\u002A,19*%
X117167537Y-125067341D03*
%TO.P,REF\u002A\u002A,20*%
X117167537Y-122527341D03*
D30*
%TO.P,REF\u002A\u002A,21*%
%TO.N,trbl*%
X119732638Y-122534785D03*
D31*
%TO.N,tlbr*%
X119707537Y-125067341D03*
%TO.P,REF\u002A\u002A,22*%
%TO.N,trbl*%
X119707537Y-122527341D03*
D30*
%TO.N,tlbr*%
X119732638Y-125074785D03*
D27*
%TO.P,REF\u002A\u002A,c1*%
%TO.N,COL1*%
X118120037Y-132717341D03*
%TO.P,REF\u002A\u002A,c2*%
%TO.N,COL2*%
X120660037Y-132717341D03*
%TO.P,REF\u002A\u002A,c3*%
%TO.N,COL3*%
X123200037Y-132717341D03*
%TO.P,REF\u002A\u002A,c4*%
%TO.N,COL4*%
X125740037Y-132717341D03*
%TO.P,REF\u002A\u002A,c5*%
%TO.N,COL5*%
X128280037Y-132717341D03*
%TO.P,REF\u002A\u002A,r1*%
%TO.N,ROW1*%
X133360037Y-114877341D03*
%TO.P,REF\u002A\u002A,r2*%
%TO.N,ROW2*%
X130820037Y-114877341D03*
D25*
%TO.P,REF\u002A\u002A,r3*%
%TO.N,ROW3*%
X128280037Y-114877341D03*
%TO.P,REF\u002A\u002A,r4*%
%TO.N,ROW4*%
X125740037Y-114877341D03*
%TD*%
D13*
%TO.P,,*%
%TO.N,batt-*%
X123542638Y-128249786D03*
%TD*%
D19*
%TO.P,REF\u002A\u002A,2*%
%TO.N,GND*%
X117305983Y-127353592D03*
%TD*%
%TO.P,REF\u002A\u002A,2*%
%TO.N,reset*%
X117385000Y-120015000D03*
%TD*%
D13*
%TO.P,,*%
%TO.N,batt+*%
X125447638Y-128249787D03*
%TD*%
D32*
%TO.N,ROW1*%
X187325000Y-118095000D03*
X167005000Y-118095000D03*
X138586671Y-119536671D03*
X176750524Y-117680526D03*
X154305000Y-118095000D03*
%TO.N,Net-(D1-A)*%
X113665000Y-69850000D03*
%TO.N,Net-(D2-A)*%
X132715000Y-67310000D03*
%TO.N,Net-(D3-A)*%
X151765000Y-64359675D03*
%TO.N,Net-(D4-A)*%
X171450000Y-64770000D03*
%TO.N,Net-(D5-A)*%
X190500000Y-64770000D03*
%TO.N,ROW4*%
X136525000Y-114300000D03*
X189308098Y-111760000D03*
X179178561Y-111760000D03*
X153670000Y-111760000D03*
X169022658Y-111760000D03*
%TO.N,Net-(D16-A)*%
X151109998Y-129815603D03*
%TO.N,Net-(D17-A)*%
X170749886Y-132014886D03*
%TO.N,Net-(D18-A)*%
X189865000Y-132715000D03*
%TO.N,Net-(D19-A)*%
X125095000Y-95250000D03*
X104140000Y-107950000D03*
%TO.N,GND*%
X202823433Y-73470019D03*
X120685138Y-130210138D03*
X201610364Y-63310019D03*
X91675333Y-95250000D03*
X124424862Y-130210138D03*
X134855333Y-123190000D03*
X95885000Y-113030000D03*
X139065000Y-125730000D03*
X200660000Y-117475000D03*
X139065000Y-123190000D03*
%TO.N,VCC*%
X204188433Y-69660019D03*
X140335000Y-123190000D03*
X116227120Y-117496192D03*
X200660000Y-113665000D03*
X207584266Y-55118000D03*
X153035000Y-120015000D03*
%TO.N,COL1*%
X110490000Y-69215000D03*
X120015000Y-107315000D03*
X110490000Y-88265000D03*
X100965000Y-107195192D03*
X119322919Y-117585837D03*
%TO.N,COL2*%
X120364004Y-118089893D03*
X129540000Y-85725000D03*
X130175000Y-66675000D03*
X139065000Y-104775000D03*
%TO.N,COL3*%
X148590000Y-64135000D03*
X147840148Y-128984634D03*
X148590000Y-83185000D03*
X152400000Y-98425000D03*
%TO.N,COL4*%
X168275000Y-63500000D03*
X133350000Y-123190000D03*
X177800000Y-102235000D03*
X133530147Y-124640147D03*
X168275000Y-83185000D03*
X167640000Y-130810000D03*
X131445000Y-125730000D03*
X121300000Y-117578341D03*
%TO.N,COL5*%
X186690000Y-132080000D03*
X187325000Y-63500000D03*
X197063410Y-101645386D03*
X121924428Y-118082476D03*
X187960000Y-83185000D03*
X139700000Y-133985000D03*
%TO.N,Net-(D6-A)*%
X113030000Y-88900000D03*
%TO.N,Net-(D7-A)*%
X132715000Y-86360000D03*
%TO.N,Net-(D8-A)*%
X151765000Y-83820000D03*
%TO.N,Net-(D9-A)*%
X171450000Y-83820000D03*
%TO.N,Net-(D10-A)*%
X190500000Y-83820000D03*
%TO.N,Net-(D11-A)*%
X130810000Y-93980000D03*
X123176818Y-107936818D03*
%TO.N,Net-(D12-A)*%
X142240000Y-105592240D03*
%TO.N,Net-(D13-A)*%
X161290000Y-102870000D03*
%TO.N,Net-(D14-A)*%
X180975000Y-102870000D03*
%TO.N,Net-(D15-A)*%
X197485000Y-103505000D03*
%TO.N,ROW2*%
X173990000Y-118745000D03*
X163830000Y-118745000D03*
X156210000Y-118745000D03*
X193675000Y-118745000D03*
X184785000Y-118745000D03*
X138787670Y-121007670D03*
%TO.N,ROW3*%
X137194657Y-116170343D03*
%TO.N,batt+*%
X128882659Y-118745000D03*
X128270000Y-123190000D03*
X90939020Y-109085980D03*
%TO.N,5v*%
X115525719Y-116937655D03*
%TO.N,batt-*%
X141605000Y-123190000D03*
X132715000Y-124860000D03*
X130795000Y-120508225D03*
X146050000Y-114601222D03*
X127000000Y-118745000D03*
%TO.N,vbatt+*%
X146349009Y-113650231D03*
X91440000Y-105410000D03*
%TO.N,reset*%
X87975333Y-95250000D03*
X92075000Y-107950000D03*
X90805000Y-110490000D03*
%TO.N,DIN*%
X135890000Y-122555000D03*
X207695330Y-75438000D03*
X200025000Y-112395000D03*
X137795000Y-125095000D03*
X137619389Y-128106767D03*
X204693433Y-78550019D03*
%TO.N,trbl*%
X118084905Y-121589340D03*
%TO.N,DINN*%
X204978000Y-64770000D03*
%TD*%
D33*
%TO.N,ROW1*%
X147491261Y-118502222D02*
X147898483Y-118095000D01*
X144953463Y-118502222D02*
X147491261Y-118502222D01*
X197580340Y-116122316D02*
X197821341Y-116122316D01*
X154305000Y-118095000D02*
X167005000Y-118095000D01*
X133360037Y-120552815D02*
X133770563Y-120963341D01*
X167005000Y-118095000D02*
X176336050Y-118095000D01*
X133360037Y-114877341D02*
X133360037Y-120552815D01*
X147898483Y-118095000D02*
X154305000Y-118095000D01*
X177165000Y-118095000D02*
X176750524Y-117680526D01*
X133770563Y-120963341D02*
X137160000Y-120963341D01*
X195607656Y-118095000D02*
X197580340Y-116122316D01*
X144310685Y-119145000D02*
X144953463Y-118502222D01*
X137160000Y-120963341D02*
X138586671Y-119536671D01*
X187325000Y-118095000D02*
X177165000Y-118095000D01*
X138978341Y-119145000D02*
X144310685Y-119145000D01*
X138586671Y-119536671D02*
X138978341Y-119145000D01*
X187325000Y-118095000D02*
X195607656Y-118095000D01*
X176336050Y-118095000D02*
X176750524Y-117680526D01*
%TO.N,Net-(D1-A)*%
X111443879Y-69850000D02*
X113665000Y-69850000D01*
X109354976Y-71938903D02*
X111443879Y-69850000D01*
%TO.N,Net-(D2-A)*%
X130836298Y-67310000D02*
X132715000Y-67310000D01*
X128612529Y-69533769D02*
X130836298Y-67310000D01*
%TO.N,Net-(D3-A)*%
X147846274Y-66808675D02*
X150519949Y-64135000D01*
X151540325Y-64135000D02*
X151765000Y-64359675D01*
X150519949Y-64135000D02*
X151540325Y-64135000D01*
%TO.N,Net-(D4-A)*%
X167096125Y-66788451D02*
X169114576Y-64770000D01*
X169114576Y-64770000D02*
X171450000Y-64770000D01*
%TO.N,Net-(D5-A)*%
X186348034Y-66777759D02*
X188355793Y-64770000D01*
X188355793Y-64770000D02*
X190500000Y-64770000D01*
%TO.N,ROW4*%
X151765000Y-111760000D02*
X153670000Y-111760000D01*
X127565686Y-112395000D02*
X134620000Y-112395000D01*
X125740037Y-114877341D02*
X126734345Y-113883033D01*
X138112500Y-115887500D02*
X138112500Y-116522500D01*
X150984572Y-112540428D02*
X151765000Y-111760000D01*
X147656947Y-115400222D02*
X148164867Y-115908142D01*
X138112500Y-116522500D02*
X139700000Y-118110000D01*
X134620000Y-112395000D02*
X136525000Y-114300000D01*
X144355256Y-115400222D02*
X147656947Y-115400222D01*
X143626930Y-116128548D02*
X144355256Y-115400222D01*
X153670000Y-111760000D02*
X189308098Y-111760000D01*
X143586452Y-116128548D02*
X143626930Y-116128548D01*
X141606414Y-118108586D02*
X143586452Y-116128548D01*
X136525000Y-114300000D02*
X138112500Y-115887500D01*
X126734345Y-113226341D02*
X127565686Y-112395000D01*
X149113245Y-115908142D02*
X150984572Y-114036815D01*
X126734345Y-113883033D02*
X126734345Y-113226341D01*
X150984572Y-114036815D02*
X150984572Y-112540428D01*
X139701414Y-118108586D02*
X141606414Y-118108586D01*
X148164867Y-115908142D02*
X149113245Y-115908142D01*
%TO.N,Net-(D16-A)*%
X146447563Y-130365886D02*
X146997846Y-129815603D01*
X146447563Y-131865886D02*
X146447563Y-130365886D01*
X146997846Y-129815603D02*
X151109998Y-129815603D01*
%TO.N,Net-(D17-A)*%
X167933563Y-132014886D02*
X170749886Y-132014886D01*
X166082563Y-133865886D02*
X167933563Y-132014886D01*
%TO.N,Net-(D18-A)*%
X187718449Y-132715000D02*
X189865000Y-132715000D01*
X185487563Y-134945886D02*
X187718449Y-132715000D01*
%TO.N,Net-(D19-A)*%
X99559765Y-110436245D02*
X102046010Y-107950000D01*
X133248142Y-95568199D02*
X131058943Y-93379000D01*
X152155571Y-107918748D02*
X151604571Y-107918748D01*
X145386163Y-108585000D02*
X144078923Y-109892240D01*
X102046010Y-107950000D02*
X104140000Y-107950000D01*
X126966000Y-93379000D02*
X125095000Y-95250000D01*
X135190382Y-109892240D02*
X133248142Y-107950000D01*
X151604571Y-107918748D02*
X150938319Y-108585000D01*
X133248142Y-107950000D02*
X133248142Y-95568199D01*
X144078923Y-109892240D02*
X135190382Y-109892240D01*
X131058943Y-93379000D02*
X126966000Y-93379000D01*
X150938319Y-108585000D02*
X145386163Y-108585000D01*
%TO.N,GND*%
X113030000Y-112826341D02*
X120359036Y-112826341D01*
X201610364Y-69881950D02*
X202823433Y-71095019D01*
X147788706Y-120650000D02*
X197485000Y-120650000D01*
X120359036Y-112826341D02*
X120660037Y-113127342D01*
X91675333Y-95250000D02*
X91675333Y-92411110D01*
X109855000Y-57785000D02*
X121285000Y-57785000D01*
X120660037Y-113127342D02*
X120660037Y-114877341D01*
X140335000Y-54610000D02*
X143510000Y-51435000D01*
X91675333Y-95250000D02*
X99695000Y-95250000D01*
X99695000Y-95250000D02*
X104775000Y-90170000D01*
X201250799Y-58083201D02*
X202334290Y-58083201D01*
X142708706Y-125730000D02*
X147788706Y-120650000D01*
X104775000Y-90170000D02*
X104775000Y-62865000D01*
X120685138Y-130210138D02*
X117510138Y-130210138D01*
X143510000Y-51435000D02*
X198755000Y-51435000D01*
X200248433Y-61948088D02*
X200248433Y-59085567D01*
X124460000Y-54610000D02*
X140335000Y-54610000D01*
X95885000Y-113030000D02*
X112826341Y-113030000D01*
X200248433Y-61948088D02*
X201610364Y-63310019D01*
X116205000Y-128454575D02*
X117305983Y-127353592D01*
X104775000Y-62865000D02*
X109855000Y-57785000D01*
X139065000Y-125730000D02*
X142708706Y-125730000D01*
X116205000Y-128905000D02*
X116205000Y-128454575D01*
X120685138Y-130210138D02*
X124424862Y-130210138D01*
X117510138Y-130210138D02*
X116205000Y-128905000D01*
X198755000Y-51435000D02*
X200248433Y-52928433D01*
X134855333Y-123190000D02*
X139065000Y-123190000D01*
X202823433Y-71095019D02*
X202823433Y-73470019D01*
X112826341Y-113030000D02*
X113030000Y-112826341D01*
X200248433Y-59085567D02*
X201250799Y-58083201D01*
X121285000Y-57785000D02*
X124460000Y-54610000D01*
X91675333Y-95250000D02*
X91675333Y-98611110D01*
X201610364Y-63310019D02*
X201610364Y-69881950D01*
X200248433Y-52928433D02*
X200248433Y-61948088D01*
X197485000Y-120650000D02*
X200660000Y-117475000D01*
%TO.N,VCC*%
X129559027Y-116928341D02*
X132362843Y-119732157D01*
X153035000Y-120015000D02*
X196850000Y-120015000D01*
X116794971Y-116928341D02*
X121428301Y-116928341D01*
X200660000Y-116205000D02*
X200660000Y-113665000D01*
X121428301Y-116928341D02*
X123200038Y-115156604D01*
X196850000Y-120015000D02*
X200660000Y-116205000D01*
X132362843Y-119732157D02*
X132362843Y-120686992D01*
X116227120Y-117496192D02*
X116794971Y-116928341D01*
X134620000Y-123825000D02*
X139700000Y-123825000D01*
X139700000Y-123825000D02*
X140335000Y-123190000D01*
X134000000Y-123205000D02*
X134620000Y-123825000D01*
X134000000Y-122324149D02*
X134000000Y-123205000D01*
X123200038Y-115156604D02*
X123200038Y-114877341D01*
X124571598Y-116928341D02*
X123200038Y-115556781D01*
X129559027Y-116928341D02*
X124571598Y-116928341D01*
X204188433Y-69660019D02*
X205623433Y-71095019D01*
X207049491Y-55118000D02*
X205834290Y-56333201D01*
X207584266Y-55118000D02*
X207049491Y-55118000D01*
X132362843Y-120686992D02*
X134000000Y-122324149D01*
%TO.N,COL1*%
X108918520Y-106045000D02*
X111109765Y-108236245D01*
X117143630Y-117945000D02*
X118936878Y-117945000D01*
X128506818Y-106383021D02*
X130357818Y-108234021D01*
X115716520Y-88265000D02*
X116856932Y-87124588D01*
X110490000Y-88265000D02*
X115716520Y-88265000D01*
X115325213Y-129922517D02*
X115325213Y-119624787D01*
X126316109Y-106383021D02*
X128506818Y-106383021D01*
X115571962Y-118108038D02*
X116980591Y-118108038D01*
X116856932Y-87124588D02*
X119047641Y-87124588D01*
X119047641Y-87124588D02*
X120898641Y-88975588D01*
X101107053Y-107337245D02*
X106116056Y-107337245D01*
X115571962Y-118108038D02*
X116941749Y-118108038D01*
X129540000Y-99060000D02*
X129540000Y-107416203D01*
X114762899Y-67887903D02*
X119053976Y-67887903D01*
X120898641Y-93593641D02*
X123825000Y-96520000D01*
X119053976Y-67887903D02*
X120904976Y-69738903D01*
X106116056Y-107337245D02*
X107408301Y-106045000D01*
X113435802Y-69215000D02*
X114762899Y-67887903D01*
X118936878Y-117945000D02*
X119395641Y-117486237D01*
X120035021Y-107335021D02*
X125364109Y-107335021D01*
X120898641Y-93593641D02*
X120898641Y-88975588D01*
X120015000Y-107315000D02*
X120035021Y-107335021D01*
X123825000Y-96520000D02*
X127000000Y-96520000D01*
X129540000Y-107416203D02*
X130357818Y-108234021D01*
X115325433Y-120650000D02*
X115326228Y-118353772D01*
X115326228Y-118353772D02*
X115571962Y-118108038D01*
X111109765Y-108236245D02*
X112962989Y-106383021D01*
X100965000Y-107195192D02*
X101107053Y-107337245D01*
X110490000Y-69215000D02*
X113435802Y-69215000D01*
X112962989Y-106383021D02*
X119083021Y-106383021D01*
X107408301Y-106045000D02*
X108918520Y-106045000D01*
X120904976Y-69738903D02*
X120904976Y-88969253D01*
X118120037Y-132717341D02*
X115325213Y-129922517D01*
X127000000Y-96520000D02*
X129540000Y-99060000D01*
X119083021Y-106383021D02*
X120015000Y-107315000D01*
X116980591Y-118108038D02*
X117143630Y-117945000D01*
X120904976Y-88969253D02*
X120898641Y-88975588D01*
X125364109Y-107335021D02*
X126316109Y-106383021D01*
%TO.N,COL2*%
X139232240Y-104942240D02*
X144627706Y-104942240D01*
X140148171Y-86581693D02*
X149621415Y-96054937D01*
X136106462Y-84730693D02*
X138297171Y-84730693D01*
X115726213Y-129061213D02*
X117275138Y-130610138D01*
X117309315Y-118345000D02*
X120108897Y-118345000D01*
X139065000Y-104775000D02*
X139232240Y-104942240D01*
X135112155Y-85725000D02*
X136106462Y-84730693D01*
X147770415Y-103990240D02*
X149621415Y-105841240D01*
X115726213Y-120439526D02*
X115726213Y-129061213D01*
X130175000Y-66675000D02*
X134928589Y-66675000D01*
X140162529Y-67333769D02*
X140162529Y-86567335D01*
X149621415Y-96054937D02*
X149621415Y-105841240D01*
X134928589Y-66675000D02*
X136120820Y-65482769D01*
X129540000Y-85725000D02*
X135112155Y-85725000D01*
X115727506Y-120439526D02*
X115727873Y-119380055D01*
X116841714Y-118812601D02*
X117309315Y-118345000D01*
X120108897Y-118345000D02*
X120364004Y-118089893D01*
X136120820Y-65482769D02*
X138311529Y-65482769D01*
X115727873Y-119380055D02*
X115727873Y-118812601D01*
X120660037Y-132090037D02*
X120660037Y-132717341D01*
X140162529Y-86567335D02*
X140148171Y-86581693D01*
X138297171Y-84730693D02*
X140148171Y-86581693D01*
X115727873Y-118812601D02*
X116841714Y-118812601D01*
X144627706Y-104942240D02*
X145579706Y-103990240D01*
X117275138Y-130610138D02*
X119180138Y-130610138D01*
X138311529Y-65482769D02*
X140162529Y-67333769D01*
X119180138Y-130610138D02*
X120660037Y-132090037D01*
X145579706Y-103990240D02*
X147770415Y-103990240D01*
%TO.N,COL3*%
X154171438Y-83185000D02*
X155353233Y-82003205D01*
X168876201Y-103094959D02*
X167025201Y-101243959D01*
X138899686Y-135351000D02*
X139299686Y-134951000D01*
X157545274Y-62757675D02*
X159396274Y-64608675D01*
X149015325Y-63709675D02*
X154402565Y-63709675D01*
X163452201Y-98164036D02*
X161782124Y-96493959D01*
X155354565Y-62757675D02*
X157545274Y-62757675D01*
X139299686Y-134951000D02*
X150521740Y-134951000D01*
X151605854Y-129166886D02*
X148022400Y-129166886D01*
X163452201Y-98395702D02*
X163452201Y-98164036D01*
X154331041Y-96493959D02*
X152400000Y-98425000D01*
X155353233Y-82003205D02*
X157543942Y-82003205D01*
X167303101Y-101521859D02*
X168876201Y-103094959D01*
X148022400Y-129166886D02*
X147840148Y-128984634D01*
X161782124Y-96493959D02*
X154331041Y-96493959D01*
X150521740Y-134951000D02*
X153955854Y-131516886D01*
X163185058Y-88255058D02*
X167303101Y-92373101D01*
X167303101Y-92373101D02*
X167303101Y-101521859D01*
X157646563Y-131516886D02*
X153955854Y-131516886D01*
X167025201Y-101243959D02*
X166300458Y-101243959D01*
X159394942Y-88255058D02*
X163185058Y-88255058D01*
X148590000Y-64135000D02*
X149015325Y-63709675D01*
X154402565Y-63709675D02*
X155354565Y-62757675D01*
X153955854Y-131516886D02*
X151605854Y-129166886D01*
X123200037Y-132717341D02*
X123200037Y-134467340D01*
X123200037Y-134467340D02*
X123683697Y-134951000D01*
X159396274Y-83852873D02*
X159394942Y-83854205D01*
X159394942Y-83854205D02*
X159394942Y-88255058D01*
X157997563Y-131165886D02*
X157646563Y-131516886D01*
X148590000Y-83185000D02*
X154171438Y-83185000D01*
X157997563Y-129665886D02*
X157997563Y-131165886D01*
X166300458Y-101243959D02*
X163452201Y-98395702D01*
X159396274Y-64608675D02*
X159396274Y-83852873D01*
X130068747Y-135351000D02*
X138899686Y-135351000D01*
X123683697Y-134951000D02*
X129668746Y-134951000D01*
X129668746Y-134951000D02*
X130068747Y-135351000D01*
X157543942Y-82003205D02*
X159394942Y-83854205D01*
%TO.N,COL4*%
X125740037Y-131434963D02*
X131445000Y-125730000D01*
X194863255Y-101222614D02*
X189992021Y-101222614D01*
X167640000Y-130810000D02*
X172595740Y-130810000D01*
X188121934Y-94776934D02*
X188121934Y-103092701D01*
X173590854Y-129814886D02*
X175781563Y-129814886D01*
X201295000Y-104775000D02*
X199155000Y-102635000D01*
X176287674Y-62230000D02*
X178646125Y-64588451D01*
X178645696Y-83847735D02*
X178645696Y-85300696D01*
X177503858Y-65730718D02*
X177503858Y-82705897D01*
X129393927Y-117330341D02*
X124176713Y-117330341D01*
X150903486Y-128766886D02*
X151900186Y-127770186D01*
X147409754Y-127635000D02*
X148541640Y-128766886D01*
X168464451Y-63689451D02*
X173652416Y-63689451D01*
X197487338Y-102635000D02*
X197147724Y-102295386D01*
X122858628Y-117310000D02*
X122838288Y-117330341D01*
X165947786Y-129117786D02*
X167640000Y-130810000D01*
X160651463Y-129117786D02*
X165947786Y-129117786D01*
X141605000Y-126365000D02*
X142875000Y-127635000D01*
X195936027Y-102295386D02*
X194863255Y-101222614D01*
X125740037Y-132717341D02*
X125740037Y-131434963D01*
X173652416Y-63689451D02*
X175111867Y-62230000D01*
X168275000Y-63500000D02*
X168464451Y-63689451D01*
X148541640Y-128766886D02*
X150903486Y-128766886D01*
X199155000Y-102635000D02*
X197487338Y-102635000D01*
X151900186Y-127770186D02*
X159303863Y-127770186D01*
X135255000Y-126365000D02*
X141605000Y-126365000D01*
X186270934Y-101241701D02*
X188121934Y-103092701D01*
X177632563Y-131665886D02*
X183153563Y-126144886D01*
X124156371Y-117310000D02*
X122858628Y-117310000D01*
X168275000Y-83185000D02*
X171315354Y-83185000D01*
X176712961Y-81915000D02*
X178645696Y-83847735D01*
X159303863Y-127770186D02*
X160651463Y-129117786D01*
X178646125Y-64588451D02*
X177503858Y-65730718D01*
X122838288Y-117330341D02*
X121548000Y-117330341D01*
X133530147Y-124640147D02*
X135255000Y-126365000D01*
X184080225Y-101241701D02*
X186270934Y-101241701D01*
X172595740Y-130810000D02*
X173590854Y-129814886D01*
X131445000Y-119381414D02*
X129393927Y-117330341D01*
X121548000Y-117330341D02*
X121300000Y-117578341D01*
X189992021Y-101222614D02*
X188121934Y-103092701D01*
X177800000Y-102235000D02*
X183086926Y-102235000D01*
X194530114Y-126144886D02*
X201295000Y-119380000D01*
X175111867Y-62230000D02*
X176287674Y-62230000D01*
X175781563Y-129814886D02*
X177632563Y-131665886D01*
X124176713Y-117330341D02*
X124156371Y-117310000D01*
X178645696Y-85300696D02*
X188121934Y-94776934D01*
X183153563Y-126144886D02*
X194530114Y-126144886D01*
X172585354Y-81915000D02*
X176712961Y-81915000D01*
X142875000Y-127635000D02*
X147409754Y-127635000D01*
X133350000Y-123190000D02*
X131445000Y-121285000D01*
X201295000Y-119380000D02*
X201295000Y-104775000D01*
X131445000Y-121285000D02*
X131445000Y-119381414D01*
X197147724Y-102295386D02*
X195936027Y-102295386D01*
X177503858Y-82705897D02*
X178645696Y-83847735D01*
X171315354Y-83185000D02*
X172585354Y-81915000D01*
X183086926Y-102235000D02*
X184080225Y-101241701D01*
%TO.N,COL5*%
X207371546Y-93297484D02*
X197909214Y-83835152D01*
X132080000Y-127635000D02*
X132080000Y-125095000D01*
X133350000Y-128905000D02*
X132080000Y-127635000D01*
X138734000Y-134951000D02*
X139700000Y-133985000D01*
X195186563Y-130894886D02*
X197037563Y-132745886D01*
X128280037Y-132717341D02*
X128280037Y-130967342D01*
X197037563Y-132745886D02*
X197037563Y-124203123D01*
X128280037Y-132717341D02*
X128280037Y-132996605D01*
X197909214Y-64588939D02*
X197898034Y-64577759D01*
X202317451Y-102235000D02*
X203329837Y-101222614D01*
X123024314Y-117710000D02*
X123002973Y-117731341D01*
X123002973Y-117731341D02*
X122275563Y-117731341D01*
X192995854Y-130894886D02*
X195186563Y-130894886D01*
X126841672Y-117730341D02*
X126056655Y-117730341D01*
X187325000Y-63500000D02*
X187503759Y-63678759D01*
X203329837Y-101222614D02*
X205520546Y-101222614D01*
X186690000Y-132080000D02*
X191810740Y-132080000D01*
X192666657Y-83185000D02*
X193867505Y-81984152D01*
X205520546Y-101222614D02*
X207371546Y-103073614D01*
X187960000Y-83185000D02*
X192666657Y-83185000D01*
X129573243Y-118076757D02*
X129227827Y-117731341D01*
X197063410Y-101645386D02*
X197653024Y-102235000D01*
X193867505Y-81984152D02*
X196058214Y-81984152D01*
X187503759Y-63678759D02*
X191106325Y-63678759D01*
X126055655Y-117731341D02*
X123377027Y-117731341D01*
X207371546Y-104573614D02*
X207371546Y-103073614D01*
X126056655Y-117730341D02*
X126055655Y-117731341D01*
X207371546Y-103073614D02*
X207371546Y-93297484D01*
X132080000Y-125095000D02*
X129573243Y-122588243D01*
X133350000Y-130175000D02*
X133350000Y-128905000D01*
X197653024Y-102235000D02*
X202317451Y-102235000D01*
X129573243Y-122588243D02*
X129573243Y-118076757D01*
X191810740Y-132080000D02*
X192995854Y-130894886D01*
X128280037Y-130967342D02*
X128581038Y-130666341D01*
X191106325Y-63678759D02*
X192058325Y-62726759D01*
X196047034Y-62726759D02*
X197898034Y-64577759D01*
X122275563Y-117731341D02*
X121924428Y-118082476D01*
X201695000Y-119545685D02*
X201695000Y-110250160D01*
X196058214Y-81984152D02*
X197909214Y-83835152D01*
X197037563Y-124203123D02*
X201695000Y-119545685D01*
X128280037Y-132996605D02*
X130234432Y-134951000D01*
X130234432Y-134951000D02*
X138734000Y-134951000D01*
X126842672Y-117731341D02*
X126841672Y-117730341D01*
X123377027Y-117731341D02*
X123355686Y-117710000D01*
X192058325Y-62726759D02*
X196047034Y-62726759D01*
X129227827Y-117731341D02*
X126842672Y-117731341D01*
X123355686Y-117710000D02*
X123024314Y-117710000D01*
X128581038Y-130666341D02*
X132858659Y-130666341D01*
X201695000Y-110250160D02*
X207371546Y-104573614D01*
X132858659Y-130666341D02*
X133350000Y-130175000D01*
X197909214Y-83835152D02*
X197909214Y-64588939D01*
%TO.N,Net-(D6-A)*%
X111624229Y-88900000D02*
X113030000Y-88900000D01*
X109348641Y-91175588D02*
X111624229Y-88900000D01*
%TO.N,Net-(D7-A)*%
X131019864Y-86360000D02*
X132715000Y-86360000D01*
X128598171Y-88781693D02*
X131019864Y-86360000D01*
%TO.N,Net-(D8-A)*%
X147844942Y-86054205D02*
X150079147Y-83820000D01*
X150079147Y-83820000D02*
X151765000Y-83820000D01*
%TO.N,Net-(D9-A)*%
X167095696Y-86047735D02*
X169323431Y-83820000D01*
X169323431Y-83820000D02*
X171450000Y-83820000D01*
%TO.N,Net-(D10-A)*%
X186359214Y-86035152D02*
X188574366Y-83820000D01*
X188574366Y-83820000D02*
X190500000Y-83820000D01*
%TO.N,Net-(D11-A)*%
X132080000Y-102927628D02*
X130046142Y-100893770D01*
X121305021Y-107936818D02*
X123176818Y-107936818D01*
X130046142Y-94743858D02*
X130810000Y-93980000D01*
X130046142Y-100893770D02*
X130046142Y-94743858D01*
X131708818Y-110085021D02*
X132080000Y-109713839D01*
X132080000Y-109713839D02*
X132080000Y-102927628D01*
X125325021Y-110085021D02*
X131708818Y-110085021D01*
X123176818Y-107936818D02*
X125325021Y-110085021D01*
X118807818Y-110434021D02*
X121305021Y-107936818D01*
%TO.N,Net-(D12-A)*%
X151513688Y-107150967D02*
X161538375Y-107150967D01*
X161538375Y-107150967D02*
X162311474Y-107924066D01*
X142240000Y-105592240D02*
X144340000Y-107692240D01*
X138071415Y-108041240D02*
X138071415Y-106541240D01*
X150972415Y-107692240D02*
X151513688Y-107150967D01*
X139020415Y-105592240D02*
X142240000Y-105592240D01*
X138071415Y-106541240D02*
X139020415Y-105592240D01*
X144340000Y-107692240D02*
X150972415Y-107692240D01*
%TO.N,Net-(D13-A)*%
X157326201Y-105294959D02*
X159751160Y-102870000D01*
X159751160Y-102870000D02*
X161290000Y-102870000D01*
X161290000Y-102870000D02*
X164465000Y-106045000D01*
X164465000Y-106045000D02*
X170527865Y-106045000D01*
X170527865Y-106045000D02*
X172445332Y-107962467D01*
%TO.N,Net-(D14-A)*%
X178994635Y-102870000D02*
X180975000Y-102870000D01*
X176571934Y-105292701D02*
X178994635Y-102870000D01*
%TO.N,Net-(D15-A)*%
X195821546Y-105273614D02*
X195821546Y-105168454D01*
X195821546Y-105168454D02*
X197485000Y-103505000D01*
X195821546Y-105273614D02*
X193101653Y-107993507D01*
X193101653Y-107993507D02*
X192742327Y-107993507D01*
%TO.N,ROW2*%
X138787670Y-121007670D02*
X140250341Y-119545000D01*
X130820037Y-114877341D02*
X130820037Y-117477659D01*
X131355539Y-118023367D02*
X132958035Y-119625863D01*
X147814168Y-118745000D02*
X156210000Y-118745000D01*
X133604878Y-121363341D02*
X132958035Y-120716498D01*
X133604878Y-121363341D02*
X134148000Y-121363341D01*
X134148000Y-121363341D02*
X134150000Y-121365341D01*
X145119149Y-118902222D02*
X147656947Y-118902222D01*
X132958035Y-120716498D02*
X132958035Y-119625863D01*
X144476371Y-119545000D02*
X145119149Y-118902222D01*
X184785000Y-118745000D02*
X193675000Y-118745000D01*
X147656947Y-118902222D02*
X147814168Y-118745000D01*
X156210000Y-118745000D02*
X163830000Y-118745000D01*
X130820037Y-117477659D02*
X131355540Y-118013162D01*
X138430000Y-121365341D02*
X138787670Y-121007670D01*
X173990000Y-118745000D02*
X184785000Y-118745000D01*
X140250341Y-119545000D02*
X144476371Y-119545000D01*
X131355540Y-118013162D02*
X131355539Y-118023367D01*
X134150000Y-121365341D02*
X138430000Y-121365341D01*
X163830000Y-118745000D02*
X173990000Y-118745000D01*
%TO.N,ROW3*%
X181610000Y-115664765D02*
X182035424Y-116090189D01*
X161290000Y-113030000D02*
X161290000Y-115555592D01*
X149058525Y-116528548D02*
X151384572Y-114202500D01*
X130051773Y-112826341D02*
X134128301Y-112826341D01*
X181610000Y-112395000D02*
X181610000Y-115664765D01*
X170815000Y-112395000D02*
X181610000Y-112395000D01*
X158115000Y-112395000D02*
X160655000Y-112395000D01*
X161290000Y-115555592D02*
X161760474Y-116026066D01*
X171894332Y-116064467D02*
X172445332Y-116064467D01*
X134128301Y-112826341D02*
X137194657Y-115892697D01*
X170815000Y-112395000D02*
X171450000Y-113030000D01*
X147491261Y-115800222D02*
X148219587Y-116528548D01*
X144119941Y-116201222D02*
X144520941Y-115800222D01*
X137194657Y-116170343D02*
X139768314Y-118744000D01*
X151384572Y-112743747D02*
X151733319Y-112395000D01*
X161760474Y-116026066D02*
X162311474Y-116026066D01*
X148219587Y-116528548D02*
X149058525Y-116528548D01*
X192191327Y-116095507D02*
X192742327Y-116095507D01*
X159002247Y-115815349D02*
X159222246Y-116035348D01*
X190542312Y-112395000D02*
X191971328Y-113824016D01*
X171450000Y-113030000D02*
X171450000Y-115620135D01*
X144119941Y-118719356D02*
X144119941Y-116201222D01*
X158115000Y-112395000D02*
X159002247Y-113282247D01*
X181610000Y-112395000D02*
X190542312Y-112395000D01*
X182035424Y-116090189D02*
X182586424Y-116090189D01*
X160655000Y-112395000D02*
X161290000Y-113030000D01*
X151733319Y-112395000D02*
X158115000Y-112395000D01*
X191971328Y-113824016D02*
X191971328Y-115875508D01*
X171450000Y-115620135D02*
X171894332Y-116064467D01*
X137194657Y-115892697D02*
X137194657Y-116170343D01*
X191971328Y-115875508D02*
X192191327Y-116095507D01*
X139768314Y-118744000D02*
X144144585Y-118744000D01*
X144520941Y-115800222D02*
X147491261Y-115800222D01*
X128280037Y-114877341D02*
X128280037Y-114598077D01*
X144144585Y-118744000D02*
X144119941Y-118719356D01*
X159002247Y-113282247D02*
X159002247Y-115815349D01*
X128280037Y-114598077D02*
X130051773Y-112826341D01*
X151384572Y-114202500D02*
X151384572Y-112743747D01*
X159222246Y-116035348D02*
X159773246Y-116035348D01*
X160655000Y-112395000D02*
X170815000Y-112395000D01*
%TO.N,batt+*%
X125422537Y-119472453D02*
X127727453Y-119472453D01*
X128882659Y-119380000D02*
X128882659Y-118745000D01*
X128270000Y-119992659D02*
X128882659Y-119380000D01*
X128270000Y-120015000D02*
X128270000Y-119992659D01*
X128270000Y-123190000D02*
X128270000Y-120015000D01*
X90939020Y-109085980D02*
X89641375Y-107788335D01*
X127727453Y-119472453D02*
X128270000Y-120015000D01*
%TO.N,5v*%
X116261583Y-116735795D02*
X115727579Y-116735795D01*
X118120037Y-114877341D02*
X116261583Y-116735795D01*
X115727579Y-116735795D02*
X115525719Y-116937655D01*
%TO.N,batt-*%
X142005000Y-123590000D02*
X141605000Y-123190000D01*
X126413974Y-118745000D02*
X126141927Y-118472953D01*
X132715000Y-124536055D02*
X133260908Y-123990147D01*
X130795000Y-121905000D02*
X130795000Y-120508225D01*
X141764083Y-114601222D02*
X146050000Y-114601222D01*
X127000000Y-118745000D02*
X126413974Y-118745000D01*
X142005000Y-123990685D02*
X142005000Y-123590000D01*
X124116860Y-118899000D02*
X123517537Y-118899000D01*
X124542907Y-118472953D02*
X124116860Y-118899000D01*
X141770685Y-124225000D02*
X142005000Y-123990685D01*
X124542907Y-118472953D02*
X126141927Y-118472953D01*
X140636757Y-115728548D02*
X141764083Y-114601222D01*
X146050000Y-114601222D02*
X148906101Y-114601222D01*
X134034239Y-124225000D02*
X141770685Y-124225000D01*
X133260908Y-123990147D02*
X133799386Y-123990147D01*
X132715000Y-124860000D02*
X132715000Y-123825000D01*
X133799386Y-123990147D02*
X134034239Y-124225000D01*
X132715000Y-123825000D02*
X130795000Y-121905000D01*
X132715000Y-124860000D02*
X132715000Y-124536055D01*
%TO.N,vbatt+*%
X95776021Y-112286021D02*
X92710000Y-109220000D01*
X126365000Y-111760000D02*
X125838979Y-112286021D01*
X142227073Y-112115903D02*
X143761401Y-113650231D01*
X92710000Y-109220000D02*
X92710000Y-106680000D01*
X91440000Y-105410000D02*
X90561665Y-106288335D01*
X90561665Y-106288335D02*
X89641375Y-106288335D01*
X148906101Y-113351222D02*
X146648018Y-113351222D01*
X140371170Y-111760000D02*
X126365000Y-111760000D01*
X92710000Y-106680000D02*
X91440000Y-105410000D01*
X140727073Y-112115903D02*
X142227073Y-112115903D01*
X143761401Y-113650231D02*
X146349009Y-113650231D01*
X125838979Y-112286021D02*
X95776021Y-112286021D01*
X140727073Y-112115903D02*
X140371170Y-111760000D01*
X146648018Y-113351222D02*
X146349009Y-113650231D01*
%TO.N,reset*%
X87975333Y-95250000D02*
X87975333Y-98611110D01*
X92075000Y-107950000D02*
X92075000Y-109220000D01*
X92075000Y-109220000D02*
X90805000Y-110490000D01*
X87975333Y-95250000D02*
X87975333Y-92411110D01*
%TO.N,DIN*%
X142405000Y-123660000D02*
X142405000Y-124156371D01*
X135890000Y-122555000D02*
X142240000Y-122555000D01*
X204693433Y-78439897D02*
X207695330Y-75438000D01*
X142875000Y-123190000D02*
X142405000Y-123660000D01*
X141466371Y-125095000D02*
X137795000Y-125095000D01*
X133360037Y-132717341D02*
X137619389Y-128457989D01*
X196850000Y-119380000D02*
X200025000Y-116205000D01*
X142240000Y-122555000D02*
X142875000Y-123190000D01*
X142405000Y-124156371D02*
X141466371Y-125095000D01*
X137619389Y-128457989D02*
X137619389Y-128106767D01*
X204693433Y-78550019D02*
X204693433Y-78439897D01*
X145641600Y-119380000D02*
X196850000Y-119380000D01*
X142875000Y-123190000D02*
X142875000Y-122146600D01*
X142875000Y-122146600D02*
X145641600Y-119380000D01*
X200025000Y-116205000D02*
X200025000Y-112395000D01*
X207695330Y-68836916D02*
X205718433Y-66860019D01*
X207695330Y-75438000D02*
X207695330Y-68836916D01*
%TO.N,tlbr*%
X118755983Y-125410358D02*
X119099000Y-125067341D01*
X118755983Y-127353592D02*
X118755983Y-125410358D01*
%TO.N,trbl*%
X118835000Y-120015000D02*
X118835000Y-120839245D01*
X118835000Y-120839245D02*
X118084905Y-121589340D01*
X119022906Y-122527341D02*
X119099000Y-122527341D01*
X118084905Y-121589340D02*
X119022906Y-122527341D01*
%TO.N,DINN*%
X202918433Y-66860019D02*
X208488266Y-61290186D01*
X207518000Y-54102000D02*
X204565491Y-54102000D01*
X204565491Y-54102000D02*
X202334290Y-56333201D01*
X208488266Y-61290186D02*
X208488266Y-55072266D01*
X202257290Y-56333201D02*
X202334290Y-56333201D01*
X208488266Y-55072266D02*
X207518000Y-54102000D01*
%TD*%
M02*
