M48
; DRILL file {KiCad 9.0.2} date 2026-05-08T07:42:51+0900
; FORMAT={-:-/ absolute / metric / decimal}
; #@! TF.CreationDate,2026-05-08T07:42:51+09:00
; #@! TF.GenerationSoftware,Kicad,Pcbnew,9.0.2
; #@! TF.FileFunction,Plated,1,2,PTH
FMAT,2
METRIC
; #@! TA.AperFunction,Plated,PTH,ComponentDrill
T1C0.200
; #@! TA.AperFunction,Plated,PTH,ViaDrill
T2C0.300
; #@! TA.AperFunction,Plated,PTH,ComponentDrill
T3C0.800
; #@! TA.AperFunction,Plated,PTH,ComponentDrill
T4C0.813
%
G90
G05
T1
X117.306Y-127.354
X117.306Y-127.354
X117.385Y-120.015
X117.385Y-120.015
T2
X87.975Y-95.25
X90.805Y-110.49
X90.939Y-109.086
X91.44Y-105.41
X91.675Y-95.25
X92.075Y-107.95
X95.885Y-113.03
X100.965Y-107.195
X104.14Y-107.95
X110.49Y-69.215
X110.49Y-88.265
X113.03Y-88.9
X113.665Y-69.85
X115.526Y-116.938
X116.227Y-117.496
X118.085Y-121.589
X119.323Y-117.586
X120.015Y-107.315
X120.364Y-118.09
X120.685Y-130.21
X121.3Y-117.578
X121.924Y-118.082
X123.177Y-107.937
X124.425Y-130.21
X125.095Y-95.25
X127.0Y-118.745
X128.27Y-123.19
X128.883Y-118.745
X129.54Y-85.725
X130.175Y-66.675
X130.795Y-120.508
X130.81Y-93.98
X131.445Y-125.73
X132.715Y-67.31
X132.715Y-86.36
X132.715Y-124.86
X133.35Y-123.19
X133.53Y-124.64
X134.855Y-123.19
X135.89Y-122.555
X136.525Y-114.3
X137.195Y-116.17
X137.619Y-128.107
X137.795Y-125.095
X138.587Y-119.537
X138.788Y-121.008
X139.065Y-104.775
X139.065Y-123.19
X139.065Y-125.73
X139.7Y-133.985
X140.335Y-123.19
X141.605Y-123.19
X142.24Y-105.592
X146.05Y-114.601
X146.349Y-113.65
X147.84Y-128.985
X148.59Y-64.135
X148.59Y-83.185
X151.11Y-129.816
X151.765Y-64.36
X151.765Y-83.82
X152.4Y-98.425
X153.035Y-120.015
X153.67Y-111.76
X154.305Y-118.095
X156.21Y-118.745
X161.29Y-102.87
X163.83Y-118.745
X167.005Y-118.095
X167.64Y-130.81
X168.275Y-63.5
X168.275Y-83.185
X169.023Y-111.76
X170.75Y-132.015
X171.45Y-64.77
X171.45Y-83.82
X173.99Y-118.745
X176.751Y-117.681
X177.8Y-102.235
X179.179Y-111.76
X180.975Y-102.87
X184.785Y-118.745
X186.69Y-132.08
X187.325Y-63.5
X187.325Y-118.095
X187.96Y-83.185
X189.308Y-111.76
X189.865Y-132.715
X190.5Y-64.77
X190.5Y-83.82
X193.675Y-118.745
X197.063Y-101.645
X197.485Y-103.505
X200.025Y-112.395
X200.66Y-113.665
X200.66Y-117.475
X201.61Y-63.31
X202.823Y-73.47
X204.188Y-69.66
X204.693Y-78.55
X204.978Y-64.77
X207.584Y-55.118
X207.695Y-75.438
T3
X119.708Y-122.527
X119.708Y-125.067
X119.733Y-122.535
X119.733Y-125.075
T4
X123.518Y-119.498
X123.543Y-128.25
X125.423Y-119.472
X125.448Y-128.25
X152.156Y-108.16
X152.156Y-115.78
X154.694Y-108.15
X154.694Y-115.77
X157.228Y-108.166
X157.228Y-115.786
X159.773Y-108.174
X159.773Y-115.794
X162.311Y-108.165
X162.311Y-115.785
X164.845Y-108.181
X164.845Y-115.801
X167.373Y-108.197
X167.373Y-115.817
X169.911Y-108.188
X169.911Y-115.808
X172.445Y-108.203
X172.445Y-115.823
X174.991Y-108.212
X174.991Y-115.832
X177.529Y-108.202
X177.529Y-115.822
X180.063Y-108.218
X180.063Y-115.838
X182.586Y-108.229
X182.586Y-115.849
X185.125Y-108.22
X185.125Y-115.84
X187.659Y-108.236
X187.659Y-115.856
X190.204Y-108.244
X190.204Y-115.864
X192.742Y-108.235
X192.742Y-115.855
X195.276Y-108.25
X195.276Y-115.87
X197.821Y-108.261
X197.821Y-115.881
M30
